<svg width="200" height="200" viewBox="0 0 200 200" fill="none" xmlns="http://www.w3.org/2000/svg">
<circle cx="100" cy="100" r="100" fill="#FFC500"/>
<path d="M100 78.805C90.1364 78.805 81.3365 85.8947 79.2732 95.5488C78.2423 100.373 78.9368 105.502 81.2366 109.867C83.4501 114.068 87.0789 117.463 91.4205 119.387C95.9365 121.388 101.121 121.737 105.868 120.372C110.447 119.056 114.507 116.166 117.271 112.287C123.051 104.178 122.278 92.7872 115.479 85.521C111.493 81.2625 105.833 78.805 100 78.805ZM110.168 101.132L104.39 107.05C102.927 108.548 100.615 106.278 102.071 104.787L104.987 101.801H91.1705C90.1893 101.801 89.3706 100.982 89.3706 100.001C89.3706 99.0204 90.1898 98.2013 91.1705 98.2013H104.918L101.945 95.2286C100.467 93.7511 102.758 91.4599 104.235 92.9373L110.154 98.8557C110.456 99.157 110.626 99.5651 110.629 99.9913C110.631 100.418 110.466 100.828 110.168 101.132Z" fill="#181B20"/>
<path d="M110.168 101.132L104.39 107.05C102.927 108.548 100.615 106.278 102.071 104.787L104.987 101.801H91.1705C90.1893 101.801 89.3706 100.982 89.3706 100.001C89.3706 99.0204 90.1898 98.2013 91.1705 98.2013H104.918L101.945 95.2286C100.467 93.7511 102.758 91.4599 104.235 92.9373L110.154 98.8557C110.456 99.157 110.626 99.5651 110.629 99.9913C110.631 100.418 110.466 100.828 110.168 101.132Z" fill="#181B20"/>
<path d="M105.196 95.8365L93.0032 108.03L91 106.027L103.192 93.8333H92.4464V91H108.03V106.583H105.196V95.8365Z" fill="#FFC500"/>
<path d="M106.621 26.8589C105.005 26.725 103.641 26.3896 102.529 25.8527C101.418 25.3031 100.595 24.574 100.06 23.6654C99.5251 22.7568 99.3084 21.6903 99.4098 20.4658C99.5112 19.2413 99.9004 18.225 100.577 17.4168C101.254 16.6086 102.186 16.0248 103.373 15.6655C104.559 15.3062 105.96 15.1935 107.576 15.3274C107.601 15.3294 107.645 15.3331 107.708 15.3383C107.784 15.3446 107.854 15.3504 107.917 15.3556C107.992 15.3619 108.037 15.3655 108.049 15.3666C109.665 15.5004 111.022 15.8416 112.121 16.3901C113.232 16.9397 114.055 17.6688 114.589 18.5774C115.124 19.486 115.341 20.5525 115.24 21.777C115.139 22.9888 114.75 24.0052 114.072 24.826C113.407 25.6352 112.488 26.22 111.315 26.5804C110.155 26.9292 108.773 27.0371 107.17 26.9043C107.145 26.9023 107.088 26.8976 106.999 26.8902C106.924 26.884 106.848 26.8777 106.772 26.8714C106.696 26.8651 106.646 26.861 106.621 26.8589ZM106.951 25.3992C106.977 25.4013 107.008 25.4039 107.046 25.407C107.084 25.4102 107.103 25.4117 107.103 25.4117C108.391 25.5057 109.491 25.4316 110.4 25.1892C111.311 24.9342 112.02 24.5099 112.527 23.9163C113.047 23.3112 113.346 22.5416 113.423 21.6075C113.5 20.686 113.33 19.8903 112.916 19.2204C112.501 18.5506 111.865 18.0149 111.009 17.6135C110.165 17.2132 109.112 16.9607 107.85 16.8562C107.837 16.8551 107.805 16.8525 107.755 16.8483C107.717 16.8452 107.685 16.8426 107.66 16.8405C106.36 16.7328 105.242 16.8054 104.306 17.0583C103.383 17.2997 102.662 17.7166 102.143 18.3091C101.624 18.9016 101.325 19.6712 101.246 20.6179C101.168 21.5647 101.343 22.3735 101.77 23.0444C102.197 23.7153 102.846 24.252 103.715 24.6545C104.597 25.0453 105.676 25.2936 106.951 25.3992ZM105.862 28.1878L107.042 13.9486L108.803 14.0944L107.623 28.3337L105.862 28.1878ZM120.931 30.2532C119.958 29.9725 119.155 29.5103 118.523 28.8667C117.891 28.2231 117.464 27.4669 117.239 26.5982C117.019 25.7172 117.046 24.8021 117.319 23.8528C117.597 22.8913 118.061 22.1025 118.714 21.4865C119.366 20.8704 120.129 20.4643 121.003 20.2681C121.88 20.0597 122.806 20.096 123.779 20.3767C124.741 20.654 125.538 21.1145 126.169 21.758C126.817 22.393 127.246 23.143 127.458 24.0083C127.686 24.8649 127.659 25.78 127.378 26.7537C127.101 27.7152 126.636 28.5039 125.984 29.12C125.344 29.7396 124.579 30.1518 123.69 30.3566C122.812 30.565 121.893 30.5305 120.931 30.2532ZM121.373 28.7197C121.994 28.8987 122.588 28.9185 123.156 28.7789C123.736 28.6429 124.239 28.3597 124.666 27.9293C125.097 27.4866 125.411 26.9246 125.608 26.243C125.808 25.5493 125.84 24.9125 125.704 24.3328C125.571 23.7409 125.296 23.2331 124.877 22.8092C124.471 22.3889 123.958 22.0892 123.337 21.9102C122.717 21.7312 122.122 21.7115 121.555 21.851C120.987 21.9906 120.484 22.2738 120.044 22.7007C119.608 23.1155 119.29 23.6697 119.09 24.3635C118.894 25.045 118.866 25.6896 119.007 26.2972C119.152 26.8926 119.427 27.4004 119.833 27.8208C120.239 28.2411 120.753 28.5407 121.373 28.7197ZM132.794 34.9023C132.041 34.5404 131.432 34.0373 130.969 33.3931C130.522 32.743 130.275 31.9849 130.227 31.1188C130.191 30.2583 130.42 29.3142 130.913 28.2866C131.407 27.259 131.995 26.4877 132.678 25.9727C133.373 25.4631 134.11 25.1851 134.892 25.1388C135.684 25.0979 136.469 25.2639 137.245 25.6369C138.135 26.0647 138.83 26.6372 139.329 27.3545C139.827 28.0718 140.109 28.8746 140.174 29.7631C140.245 30.6401 140.058 31.541 139.614 32.4659C139.169 33.3907 138.58 34.1054 137.846 34.6099C137.112 35.1144 136.309 35.3962 135.437 35.4554C134.566 35.5145 133.685 35.3301 132.794 34.9023ZM126.435 35.8104L132.391 23.4108L133.967 24.1676L132.79 26.6167L131.676 28.6739L130.835 30.8628L128.079 36.6002L126.435 35.8104ZM133.348 33.3979C133.931 33.6776 134.513 33.7959 135.096 33.7526C135.69 33.7149 136.234 33.5193 136.727 33.1659C137.237 32.8066 137.645 32.3072 137.952 31.6679C138.265 31.017 138.397 30.3918 138.347 29.792C138.315 29.1863 138.128 28.6397 137.786 28.1523C137.456 27.6703 136.999 27.2894 136.417 27.0097C135.846 26.7355 135.263 26.6172 134.669 26.655C134.086 26.6982 133.543 26.8938 133.038 27.2417C132.551 27.5836 132.151 28.08 131.838 28.7309C131.531 29.3702 131.391 29.9985 131.418 30.6156C131.461 31.2268 131.648 31.7734 131.979 32.2553C132.321 32.7428 132.777 33.1237 133.348 33.3979ZM139.295 38.2615L145.26 30.1483L146.776 31.2625L145.854 39.8293L145.242 39.3791L153.236 36.0119L154.613 37.0249L148.648 45.1381L147.317 44.1589L152.066 37.699L152.21 38.0168L144.961 41.012L144.318 40.5393L145.078 32.6087L145.414 32.7613L140.642 39.2519L139.295 38.2615ZM155.249 51.6928L156.786 50.2217L157.009 49.8772L159.631 47.3684C160.19 46.8342 160.462 46.2579 160.449 45.6395C160.454 45.0214 160.145 44.3875 159.523 43.7377C159.112 43.3075 158.636 42.9566 158.095 42.6848C157.564 42.4043 157.044 42.236 156.534 42.18L156.997 40.6851C157.658 40.7714 158.316 41.0009 158.971 41.3738C159.643 41.747 160.256 42.2219 160.807 42.7985C161.762 43.7961 162.255 44.7969 162.286 45.801C162.318 46.8051 161.835 47.7844 160.837 48.7389L156.444 52.9421L155.249 51.6928ZM152.881 49.3828C152.364 48.8428 152.001 48.2793 151.79 47.6923C151.587 47.1145 151.541 46.5625 151.651 46.0364C151.771 45.5015 152.036 45.037 152.448 44.643C152.842 44.2664 153.286 44.0164 153.782 43.893C154.286 43.7787 154.836 43.8401 155.431 44.0773C156.034 44.3235 156.682 44.8082 157.374 45.5312L159.581 47.8376L158.633 48.7439L156.479 46.4925C155.849 45.8335 155.314 45.4947 154.876 45.476C154.437 45.4574 154.062 45.5969 153.751 45.8946C153.394 46.2361 153.241 46.6538 153.293 47.1477C153.354 47.6329 153.625 48.1271 154.107 48.6305C154.58 49.1247 155.101 49.4498 155.671 49.6057C156.25 49.7708 156.829 49.7343 157.407 49.4963L156.751 50.624C156.154 50.8617 155.518 50.8835 154.841 50.6893C154.174 50.4864 153.52 50.0509 152.881 49.3828ZM162.482 61.5705C162.079 60.9261 161.763 60.2422 161.535 59.5186C161.324 58.799 161.223 58.1002 161.232 57.4221L162.7 57.1537C162.697 57.723 162.786 58.3177 162.964 58.938C163.154 59.5515 163.417 60.1267 163.753 60.6637C164.062 61.1577 164.386 61.5449 164.726 61.8254C165.072 62.1166 165.408 62.2951 165.733 62.3607C166.069 62.4197 166.376 62.3618 166.655 62.1872C167.053 61.9386 167.248 61.57 167.241 61.0813C167.234 60.5925 167.032 60.0314 166.636 59.3978L165.669 57.8514L166.78 57.1562L167.687 58.6059C167.922 58.9818 168.17 59.2824 168.431 59.5079C168.691 59.7334 168.954 59.8675 169.22 59.9104C169.504 59.9573 169.763 59.9068 170 59.759C170.257 59.5978 170.42 59.3688 170.489 59.0721C170.557 58.7753 170.536 58.4303 170.424 58.0369C170.319 57.6543 170.129 57.2428 169.854 56.8026C169.574 56.3797 169.24 55.9764 168.85 55.5925C168.467 55.2194 168.019 54.8725 167.504 54.5518L168.451 53.3773C169.02 53.7382 169.524 54.1254 169.961 54.5388C170.417 54.9562 170.804 55.4085 171.124 55.8958C171.609 56.6233 171.936 57.3375 172.106 58.0383C172.286 58.7324 172.303 59.3567 172.157 59.9113C172.017 60.4766 171.706 60.9104 171.223 61.2127C170.815 61.468 170.369 61.5675 169.886 61.5113C169.413 61.4483 168.951 61.2592 168.5 60.9438C168.048 60.6285 167.648 60.1916 167.299 59.6332L167.71 59.4659C168.307 60.4216 168.59 61.2909 168.557 62.0737C168.523 62.8565 168.184 63.4494 167.54 63.8524C167.025 64.1749 166.461 64.2885 165.848 64.1934C165.247 64.0916 164.649 63.8159 164.054 63.3664C163.476 62.9208 162.952 62.3222 162.482 61.5705ZM166.079 67.5563L175.304 63.519L177.178 67.8009C177.651 68.8801 177.812 69.8186 177.664 70.6164C177.532 71.4208 177.089 71.988 176.335 72.3181C175.58 72.6482 174.865 72.6087 174.188 72.1998C173.528 71.7973 172.987 71.1145 172.566 70.1514L173.133 70.2144C173.615 71.3168 173.77 72.2237 173.597 72.9353C173.425 73.6468 172.944 74.1752 172.155 74.5206C171.354 74.871 170.596 74.8435 169.879 74.4381C169.179 74.0393 168.56 73.2249 168.022 71.9948L166.079 67.5563ZM168.083 68.6288L169.256 71.3093C169.561 72.0055 169.894 72.482 170.255 72.7387C170.628 72.9904 171.052 73.0121 171.528 72.8039C172.015 72.5906 172.298 72.2732 172.377 71.8518C172.472 71.4369 172.369 70.8872 172.07 70.2025L170.851 67.4176L168.083 68.6288ZM172.052 66.892L173.149 69.3984C173.428 70.0367 173.755 70.4674 174.129 70.6908C174.52 70.9207 174.93 70.9417 175.36 70.7538C175.801 70.5608 176.058 70.2478 176.131 69.8148C176.209 69.3934 176.109 68.8636 175.829 68.2253L174.732 65.7189L172.052 66.892ZM178.689 74.5251L182.652 74.2598L181.677 74.8296C181.566 74.4796 181.58 74.1493 181.721 73.8387C181.865 73.5402 182.118 73.3333 182.48 73.218C182.854 73.0988 183.186 73.1193 183.477 73.2794C183.783 73.4477 183.99 73.7009 184.097 74.0388C184.209 74.3888 184.178 74.7109 184.006 75.005C183.846 75.2953 183.591 75.4962 183.241 75.6077C183.132 75.6423 183.016 75.6728 182.891 75.6991C182.779 75.7217 182.643 75.7318 182.482 75.7297C182.326 75.7396 182.12 75.7389 181.863 75.7274L179.052 75.6657L178.689 74.5251ZM172.763 88.0428L176.222 87.3197L175.945 87.6687L175.288 84.5256C175.014 83.2113 175.078 82.1239 175.48 81.2634C175.885 80.4152 176.621 79.8797 177.687 79.6569C178.828 79.4184 179.771 79.6289 180.517 80.2882C181.266 80.9599 181.777 81.9529 182.052 83.2671L182.954 87.5819L173.097 89.6422L172.763 88.0428ZM171.27 80.9011L175.605 82.7901L175.99 84.6313L171.67 82.8167L171.27 80.9011ZM176.78 87.2031L181.559 86.204L181.116 86.588L180.501 83.6495C180.33 82.8312 180.043 82.2312 179.64 81.8497C179.249 81.4655 178.706 81.346 178.012 81.4911C176.723 81.7607 176.252 82.7261 176.599 84.3876L177.229 87.4004L176.78 87.2031ZM173.521 95.5588C173.472 94.8004 173.519 94.0485 173.661 93.3031C173.816 92.5695 174.059 91.9064 174.388 91.3138L175.808 91.7738C175.536 92.2738 175.331 92.8393 175.195 93.4701C175.071 94.1001 175.029 94.7311 175.07 95.3632C175.108 95.9446 175.21 96.4394 175.376 96.8475C175.543 97.2682 175.754 97.5845 176.009 97.7965C176.276 98.0076 176.574 98.1025 176.903 98.0812C177.37 98.0508 177.717 97.8189 177.943 97.3854C178.169 96.9518 178.257 96.3622 178.209 95.6164L178.091 93.7962L179.399 93.7114L179.51 95.4178C179.539 95.8602 179.614 96.2424 179.737 96.5645C179.859 96.8866 180.027 97.1295 180.241 97.2934C180.468 97.469 180.721 97.5478 180.999 97.5298C181.302 97.5101 181.554 97.3858 181.755 97.157C181.956 96.9282 182.101 96.6142 182.189 96.2149C182.278 95.8284 182.306 95.3759 182.272 94.8577C182.227 94.3529 182.124 93.8392 181.963 93.3165C181.803 92.8065 181.573 92.2883 181.272 91.762L182.662 91.1768C182.992 91.7646 183.252 92.3443 183.441 92.9159C183.644 93.4994 183.771 94.0814 183.821 94.662C183.903 95.5325 183.852 96.3165 183.669 97.0138C183.498 97.7103 183.217 98.268 182.825 98.6869C182.435 99.1185 181.955 99.3527 181.386 99.3896C180.906 99.4208 180.466 99.297 180.067 99.0182C179.681 98.7387 179.364 98.353 179.116 97.8614C178.869 97.3697 178.723 96.7953 178.681 96.138L179.122 96.1855C179.195 97.3105 179.031 98.2096 178.63 98.883C178.23 99.5563 177.65 99.9176 176.892 99.9668C176.285 100.006 175.735 99.8388 175.241 99.4647C174.76 99.0897 174.364 98.5633 174.053 97.8853C173.756 97.2191 173.579 96.4436 173.521 95.5588ZM173.322 109.812L178.499 106.291L179.297 107.855L173.163 111.953L173.322 109.812ZM173.862 102.536L183.905 103.281L183.77 105.1L173.727 104.355L173.862 102.536ZM178.012 104.121L179.566 104.236L179.32 107.552L177.766 107.436L178.012 104.121ZM178.301 107.933L178.653 106.264L183.37 110.482L183.225 112.433L178.301 107.933ZM169.023 112.549C169.126 112.079 169.307 111.639 169.566 111.229C169.812 110.816 170.119 110.481 170.487 110.225L171.656 111.279C171.366 111.475 171.127 111.708 170.938 111.977C170.749 112.247 170.618 112.549 170.545 112.883C170.45 113.316 170.482 113.699 170.643 114.033C170.803 114.366 171.14 114.719 171.655 115.092L172.875 116.002L173.057 116.236L181.136 122.056L180.753 123.801L170.981 116.655C170.351 116.219 169.877 115.778 169.56 115.332C169.24 114.898 169.046 114.454 168.977 113.998C168.897 113.539 168.912 113.056 169.023 112.549ZM171.906 115.633L183.043 113.371L182.636 115.227L173.037 117.126L171.906 115.633ZM161.585 142.052C162.499 140.712 163.463 139.691 164.479 138.988C165.505 138.293 166.545 137.937 167.599 137.92C168.653 137.902 169.688 138.24 170.703 138.932C171.718 139.624 172.41 140.464 172.78 141.452C173.149 142.439 173.197 143.538 172.924 144.747C172.652 145.956 172.059 147.231 171.145 148.57C171.131 148.591 171.106 148.628 171.071 148.68C171.028 148.743 170.988 148.8 170.953 148.853C170.91 148.916 170.885 148.952 170.878 148.963C169.964 150.302 168.998 151.314 167.979 151.999C166.953 152.695 165.913 153.051 164.859 153.068C163.805 153.085 162.77 152.748 161.755 152.056C160.75 151.371 160.058 150.531 159.679 149.536C159.302 148.559 159.247 147.471 159.512 146.272C159.781 145.091 160.369 143.836 161.275 142.507C161.289 142.486 161.321 142.439 161.371 142.366C161.414 142.303 161.457 142.24 161.5 142.177C161.542 142.114 161.571 142.073 161.585 142.052ZM162.692 143.059C162.678 143.08 162.66 143.106 162.638 143.138C162.617 143.169 162.606 143.185 162.606 143.185C161.889 144.259 161.411 145.252 161.173 146.163C160.946 147.081 160.966 147.907 161.232 148.641C161.502 149.392 162.024 150.031 162.798 150.559C163.562 151.08 164.338 151.326 165.125 151.295C165.912 151.265 166.692 150.976 167.463 150.429C168.228 149.892 168.967 149.101 169.681 148.054C169.688 148.044 169.705 148.018 169.734 147.976C169.755 147.944 169.773 147.918 169.788 147.897C170.523 146.819 171.011 145.811 171.253 144.872C171.498 143.95 171.49 143.118 171.231 142.374C170.972 141.63 170.45 140.99 169.665 140.455C168.88 139.92 168.09 139.673 167.296 139.713C166.501 139.754 165.715 140.054 164.936 140.611C164.161 141.186 163.413 142.002 162.692 143.059ZM160.803 140.737L172.608 148.786L171.613 150.246L159.808 142.196L160.803 140.737ZM151.588 152.834C152.311 152.124 153.107 151.651 153.978 151.417C154.849 151.182 155.718 151.181 156.585 151.412C157.461 151.652 158.245 152.125 158.938 152.829C159.639 153.543 160.098 154.335 160.315 155.205C160.531 156.076 160.511 156.94 160.253 157.798C160.004 158.665 159.518 159.453 158.795 160.164C158.082 160.865 157.29 161.333 156.419 161.568C155.548 161.82 154.683 161.826 153.826 161.586C152.968 161.364 152.183 160.892 151.473 160.169C150.771 159.456 150.312 158.664 150.096 157.793C149.87 156.931 149.886 156.063 150.144 155.187C150.393 154.32 150.875 153.536 151.588 152.834ZM152.707 153.972C152.247 154.425 151.938 154.933 151.781 155.496C151.615 156.068 151.614 156.646 151.78 157.229C151.954 157.822 152.29 158.371 152.787 158.877C153.293 159.392 153.832 159.732 154.404 159.898C154.985 160.073 155.562 160.083 156.137 159.926C156.703 159.779 157.216 159.479 157.676 159.026C158.137 158.573 158.446 158.065 158.603 157.502C158.76 156.939 158.76 156.361 158.604 155.769C158.456 155.185 158.13 154.636 157.623 154.121C157.126 153.616 156.578 153.275 155.979 153.1C155.39 152.934 154.812 152.924 154.247 153.072C153.681 153.219 153.168 153.52 152.707 153.972ZM141.713 160.884C142.398 160.405 143.135 160.123 143.924 160.036C144.71 159.966 145.491 160.124 146.269 160.508C147.036 160.899 147.746 161.562 148.399 162.497C149.051 163.432 149.434 164.323 149.547 165.171C149.649 166.026 149.529 166.806 149.185 167.509C148.831 168.219 148.301 168.821 147.595 169.313C146.785 169.879 145.945 170.202 145.075 170.284C144.205 170.366 143.367 170.217 142.562 169.837C141.763 169.467 141.07 168.862 140.483 168.02C139.896 167.179 139.563 166.315 139.485 165.427C139.406 164.54 139.555 163.702 139.932 162.914C140.309 162.126 140.902 161.449 141.713 160.884ZM144.047 154.899L151.919 166.18L150.485 167.181L148.93 164.952L147.687 162.971L146.193 161.163L142.551 155.943L144.047 154.899ZM142.751 162.106C142.221 162.475 141.831 162.925 141.583 163.453C141.324 163.99 141.227 164.559 141.292 165.162C141.355 165.783 141.589 166.384 141.995 166.966C142.408 167.558 142.888 167.98 143.434 168.232C143.978 168.501 144.545 168.607 145.138 168.549C145.72 168.498 146.276 168.287 146.806 167.918C147.325 167.555 147.715 167.106 147.974 166.57C148.223 166.041 148.32 165.471 148.264 164.861C148.206 164.269 147.97 163.676 147.557 163.084C147.151 162.502 146.673 162.072 146.122 161.792C145.569 161.529 145.001 161.424 144.419 161.475C143.826 161.533 143.27 161.743 142.751 162.106ZM135.592 164.894L139.725 174.077L138.01 174.849L131.003 169.835L131.696 169.523L130.698 178.14L129.139 178.842L125.006 169.659L126.513 168.981L129.804 176.292L129.457 176.261L130.412 168.476L131.14 168.149L137.672 172.709L137.374 172.927L134.068 165.581L135.592 164.894ZM116.052 172.17L116.574 174.233L116.763 174.596L117.653 178.115C117.842 178.864 118.209 179.385 118.753 179.679C119.289 179.987 119.992 180.032 120.864 179.811C121.441 179.665 121.982 179.424 122.485 179.088C122.991 178.764 123.394 178.395 123.694 177.979L124.766 179.119C124.365 179.652 123.84 180.111 123.193 180.497C122.537 180.898 121.822 181.196 121.048 181.391C119.71 181.73 118.596 181.665 117.707 181.197C116.818 180.73 116.204 179.826 115.866 178.488L114.376 172.593L116.052 172.17ZM119.229 171.249C119.954 171.066 120.624 171.027 121.238 171.133C121.841 171.242 122.344 171.474 122.747 171.83C123.153 172.197 123.426 172.657 123.566 173.21C123.7 173.738 123.698 174.248 123.561 174.74C123.412 175.235 123.087 175.683 122.587 176.083C122.075 176.487 121.334 176.812 120.364 177.057L117.269 177.839L116.948 176.568L119.969 175.804C120.853 175.581 121.412 175.283 121.644 174.911C121.877 174.538 121.94 174.144 121.835 173.726C121.714 173.247 121.426 172.908 120.97 172.71C120.518 172.524 119.955 172.516 119.279 172.687C118.616 172.854 118.076 173.147 117.659 173.566C117.23 173.988 116.977 174.51 116.898 175.13L116.241 174.003C116.329 173.367 116.624 172.802 117.126 172.31C117.632 171.829 118.333 171.475 119.229 171.249ZM103.898 173.606C104.658 173.574 105.408 173.639 106.15 173.798C106.88 173.971 107.537 174.229 108.122 174.573L107.628 175.981C107.135 175.697 106.575 175.479 105.947 175.328C105.32 175.189 104.69 175.132 104.057 175.158C103.475 175.182 102.978 175.273 102.566 175.429C102.142 175.586 101.821 175.789 101.603 176.039C101.385 176.302 101.283 176.597 101.297 176.926C101.316 177.395 101.54 177.747 101.968 177.983C102.396 178.219 102.983 178.321 103.73 178.291L105.553 178.215L105.606 179.525L103.898 179.596C103.455 179.614 103.071 179.68 102.746 179.795C102.421 179.91 102.174 180.072 102.006 180.282C101.825 180.505 101.74 180.756 101.751 181.034C101.764 181.338 101.882 181.593 102.106 181.799C102.33 182.006 102.641 182.158 103.038 182.255C103.422 182.354 103.874 182.392 104.392 182.371C104.898 182.337 105.414 182.246 105.941 182.098C106.454 181.95 106.978 181.732 107.511 181.444L108.063 182.847C107.468 183.163 106.882 183.409 106.306 183.585C105.718 183.774 105.133 183.887 104.552 183.923C103.679 183.985 102.897 183.916 102.204 183.716C101.512 183.529 100.961 183.235 100.551 182.833C100.129 182.432 99.9063 181.947 99.8828 181.377C99.863 180.896 99.9972 180.46 100.285 180.068C100.574 179.688 100.967 179.38 101.464 179.144C101.962 178.908 102.539 178.777 103.198 178.75L103.14 179.19C102.013 179.236 101.118 179.051 100.454 178.635C99.7908 178.218 99.4433 177.63 99.412 176.871C99.387 176.263 99.5674 175.717 99.9531 175.232C100.339 174.76 100.875 174.377 101.56 174.082C102.233 173.801 103.013 173.642 103.898 173.606ZM96.9164 173.777L95.906 183.796L91.2556 183.327C90.0836 183.209 89.1864 182.889 88.5642 182.368C87.9282 181.858 87.6515 181.194 87.7341 180.374C87.8167 179.555 88.2022 178.951 88.8907 178.562C89.5653 178.185 90.4257 178.049 91.4717 178.154L91.1386 178.617C89.9413 178.496 89.0751 178.186 88.5398 177.687C88.0046 177.187 87.7802 176.509 87.8666 175.652C87.9543 174.782 88.3506 174.135 89.0555 173.709C89.7465 173.295 90.76 173.156 92.0959 173.29L96.9164 173.777ZM94.9984 174.996L92.0871 174.703C91.331 174.626 90.7524 174.683 90.3515 174.871C89.9492 175.073 89.7221 175.432 89.67 175.948C89.6166 176.478 89.7542 176.88 90.083 177.155C90.3978 177.441 90.927 177.622 91.6706 177.697L94.6953 178.002L94.9984 174.996ZM94.5637 179.306L91.8415 179.032C91.1484 178.962 90.6126 179.035 90.2343 179.252C89.8422 179.479 89.6226 179.827 89.5755 180.293C89.5273 180.772 89.6738 181.149 90.0151 181.426C90.3438 181.701 90.8548 181.873 91.5479 181.943L94.2701 182.218L94.5637 179.306ZM84.6631 181.345L82.9517 184.929L82.933 183.8C83.2927 183.875 83.5735 184.049 83.7754 184.324C83.9649 184.596 84.0212 184.918 83.9443 185.29C83.8648 185.674 83.6841 185.954 83.4022 186.128C83.1054 186.313 82.7833 186.369 82.436 186.297C82.0763 186.223 81.8104 186.039 81.6385 185.744C81.4639 185.462 81.4138 185.142 81.4882 184.782C81.5113 184.67 81.5419 184.554 81.5799 184.432C81.6154 184.323 81.6734 184.199 81.7538 184.061C81.8218 183.92 81.9236 183.74 82.0591 183.522L83.4909 181.102L84.6631 181.345ZM75.7871 169.549L74.7197 172.918L74.5513 172.506L77.6123 173.475C78.8923 173.881 79.8085 174.47 80.3608 175.243C80.9011 176.012 81.0067 176.916 80.6777 177.954C80.3258 179.065 79.6795 179.784 78.739 180.11C77.7864 180.433 76.6701 180.392 75.3901 179.986L71.188 178.655L74.2294 169.055L75.7871 169.549ZM82.7423 171.752L78.9692 174.603L77.176 174.035L80.8767 171.161L82.7423 171.752ZM74.5475 173.461L73.0728 178.116L72.956 177.541L75.8178 178.448C76.6148 178.7 77.2784 178.744 77.8088 178.58C78.3353 178.428 78.7057 178.014 78.9199 177.338C79.3178 176.082 78.7077 175.198 77.0896 174.685L74.1553 173.755L74.5475 173.461ZM68.8722 166.509C69.5561 166.84 70.1873 167.251 70.7656 167.743C71.3269 168.24 71.784 168.778 72.1368 169.357L71.0362 170.365C70.7355 169.882 70.3446 169.425 69.8634 168.995C69.3766 168.576 68.8483 168.228 68.2783 167.952C67.754 167.698 67.2733 167.543 66.8364 167.486C66.3881 167.423 66.0089 167.451 65.6987 167.568C65.3831 167.697 65.1535 167.909 65.0099 168.205C64.8055 168.627 64.8362 169.043 65.1019 169.453C65.3676 169.864 65.8367 170.232 66.5093 170.558L68.1507 171.353L67.5791 172.533L66.0402 171.787C65.6412 171.594 65.2715 171.471 64.9309 171.418C64.5904 171.366 64.2961 171.392 64.0481 171.497C63.7833 171.608 63.5901 171.789 63.4685 172.04C63.336 172.314 63.3197 172.594 63.4195 172.882C63.5194 173.17 63.7212 173.45 64.0249 173.724C64.3171 173.992 64.697 174.24 65.1643 174.466C65.6258 174.676 66.1235 174.84 66.6575 174.958C67.1801 175.07 67.7445 175.125 68.3506 175.123L68.1738 176.621C67.4997 176.618 66.8672 176.558 66.2766 176.441C65.669 176.329 65.1003 176.152 64.5705 175.91C63.7729 175.551 63.116 175.121 62.5999 174.617C62.0782 174.125 61.7318 173.605 61.5607 173.058C61.3782 172.505 61.4113 171.972 61.6598 171.459C61.8697 171.026 62.1943 170.705 62.6335 170.495C63.0673 170.297 63.5591 170.212 64.1089 170.239C64.6588 170.266 65.2301 170.423 65.8229 170.711L65.5639 171.071C64.5494 170.579 63.8481 169.993 63.4601 169.312C63.072 168.632 63.0437 167.949 63.3751 167.265C63.6402 166.718 64.0573 166.322 64.6265 166.077C65.1901 165.844 65.8433 165.759 66.5863 165.823C67.3123 165.894 68.0743 166.122 68.8722 166.509ZM56.572 159.307L57.0836 165.547L55.329 165.471L54.7875 158.113L56.572 159.307ZM62.6361 163.364L57.0368 171.734L55.5208 170.72L61.1201 162.35L62.6361 163.364ZM59.2115 166.194L58.3452 167.489L55.5816 165.64L56.4479 164.345L59.2115 166.194ZM55.752 164.565L57.0307 165.695L51.0358 167.719L49.4093 166.631L55.752 164.565ZM56.3091 154.218C56.6674 154.54 56.9613 154.914 57.1908 155.341C57.4288 155.758 57.5689 156.19 57.6111 156.637L56.1177 157.135C56.0898 156.787 56.005 156.464 55.8633 156.166C55.7216 155.869 55.5234 155.606 55.2688 155.378C54.9388 155.082 54.5892 154.922 54.2201 154.897C53.851 154.872 53.3776 154.992 52.8 155.257L51.4071 155.87L51.1134 155.913L42.0694 160.078L40.7398 158.885L51.7709 153.9C52.4614 153.566 53.0787 153.371 53.6228 153.315C54.1575 153.25 54.6401 153.3 55.0706 153.465C55.5096 153.62 55.9225 153.871 56.3091 154.218ZM52.2053 155.208L48.6889 166.015L47.2745 164.746L50.3486 155.457L52.2053 155.208ZM34.2615 133.239C34.9811 134.692 35.3981 136.034 35.5124 137.263C35.6153 138.499 35.4158 139.58 34.9138 140.507C34.4118 141.434 33.6103 142.17 32.5093 142.715C31.4082 143.261 30.3369 143.452 29.2952 143.29C28.2535 143.127 27.2725 142.631 26.3523 141.8C25.4321 140.969 24.6122 139.828 23.8926 138.375C23.8814 138.352 23.8617 138.312 23.8336 138.256C23.7998 138.188 23.7689 138.125 23.7408 138.068C23.7071 138 23.6874 137.961 23.6818 137.949C22.9622 136.496 22.5537 135.158 22.4564 133.934C22.3534 132.699 22.553 131.617 23.055 130.69C23.557 129.763 24.3585 129.027 25.4595 128.482C26.5492 127.942 27.6205 127.751 28.6736 127.907C29.7097 128.059 30.685 128.544 31.5996 129.363C32.4972 130.177 33.303 131.304 34.017 132.746C34.0282 132.768 34.0535 132.819 34.0929 132.899C34.1266 132.967 34.1603 133.035 34.1941 133.103C34.2278 133.171 34.2503 133.217 34.2615 133.239ZM32.8407 133.71C32.8295 133.687 32.8154 133.659 32.7986 133.625C32.7817 133.591 32.7733 133.574 32.7733 133.574C32.1885 132.421 31.5575 131.518 30.8802 130.864C30.1915 130.216 29.4622 129.828 28.6923 129.7C27.9054 129.567 27.092 129.709 26.252 130.125C25.4234 130.535 24.8294 131.091 24.4698 131.792C24.1103 132.493 23.9797 133.314 24.0781 134.254C24.1709 135.184 24.4984 136.216 25.0606 137.351C25.0662 137.362 25.0803 137.391 25.1027 137.436C25.1196 137.47 25.1337 137.499 25.1449 137.521C25.724 138.691 26.3634 139.611 27.0633 140.282C27.7462 140.947 28.4755 141.349 29.251 141.488C30.0266 141.627 30.84 141.486 31.6913 141.064C32.5426 140.642 33.1452 140.075 33.4991 139.363C33.853 138.65 33.978 137.818 33.8739 136.866C33.7529 135.908 33.4085 134.856 32.8407 133.71ZM35.7911 133.203L22.9875 139.544L22.2032 137.961L35.0069 131.619L35.7911 133.203ZM29.7912 119.233C30.0519 120.212 30.0691 121.138 29.8427 122.011C29.6164 122.884 29.1885 123.64 28.5592 124.279C27.9176 124.922 27.1194 125.371 26.1647 125.625C25.1977 125.882 24.2822 125.89 23.4182 125.648C22.5543 125.406 21.8132 124.961 21.195 124.313C20.5645 123.668 20.1189 122.856 19.8582 121.877C19.6008 120.91 19.5853 119.99 19.8116 119.117C20.0225 118.235 20.4442 117.481 21.0768 116.854C21.6939 116.217 22.4921 115.769 23.4713 115.508C24.4383 115.251 25.3538 115.243 26.2178 115.485C27.0785 115.714 27.8257 116.158 28.4594 116.815C29.0899 117.46 29.5338 118.266 29.7912 119.233ZM28.249 119.643C28.0828 119.019 27.7937 118.5 27.3819 118.085C26.9667 117.658 26.4646 117.372 25.8756 117.228C25.2743 117.086 24.6309 117.107 23.9455 117.289C23.2478 117.475 22.6855 117.775 22.2586 118.19C21.8194 118.609 21.5259 119.106 21.378 119.683C21.2268 120.248 21.2343 120.842 21.4005 121.467C21.5667 122.091 21.8557 122.61 22.2676 123.025C22.6795 123.44 23.1816 123.725 23.7739 123.882C24.354 124.042 24.9928 124.03 25.6905 123.844C26.376 123.661 26.9428 123.353 27.3909 122.919C27.8268 122.489 28.1203 121.991 28.2715 121.426C28.4227 120.862 28.4152 120.267 28.249 119.643ZM27.6568 106.671C27.7359 107.504 27.6192 108.284 27.3068 109.014C26.9806 109.732 26.4589 110.335 25.7418 110.823C25.0236 111.298 24.097 111.59 22.9621 111.698C21.8272 111.806 20.8629 111.7 20.0692 111.381C19.2743 111.049 18.6553 110.561 18.2123 109.916C17.7682 109.258 17.5053 108.501 17.4239 107.643C17.3305 106.66 17.4622 105.769 17.8191 104.972C18.1759 104.175 18.718 103.519 19.4453 103.004C20.16 102.491 21.028 102.186 22.0494 102.089C23.0708 101.992 23.9871 102.128 24.7982 102.496C25.6093 102.864 26.2652 103.406 26.7658 104.122C27.2664 104.838 27.5634 105.688 27.6568 106.671ZM31.7177 111.649L18.0233 112.949L17.858 111.209L20.5629 110.952L22.9002 110.845L25.2087 110.435L31.5452 109.833L31.7177 111.649ZM26.0824 106.974C26.0213 106.33 25.8218 105.77 25.4838 105.294C25.1447 104.804 24.6965 104.44 24.1394 104.2C23.5684 103.949 22.9298 103.857 22.2237 103.924C21.5049 103.992 20.9014 104.202 20.4131 104.554C19.9111 104.894 19.5396 105.337 19.2987 105.881C19.0565 106.413 18.966 107.001 19.0271 107.644C19.087 108.274 19.2865 108.834 19.6257 109.324C19.9636 109.8 20.4117 110.165 20.9701 110.417C21.5147 110.658 22.1463 110.745 22.8651 110.676C23.5712 110.609 24.1817 110.405 24.6963 110.063C25.1972 109.711 25.5687 109.268 25.8108 108.736C26.0517 108.192 26.1422 107.604 26.0824 106.974ZM27.1762 99.3695L17.1477 98.4562L17.3183 96.5829L25.1285 92.9443L25.0596 93.7012L18.0456 88.598L18.2007 86.895L28.2291 87.8084L28.0792 89.4546L20.0943 88.7273L20.2921 88.4401L26.6027 93.0977L26.5303 93.8924L19.348 97.3401L19.305 96.9737L27.3278 97.7044L27.1762 99.3695ZM30.4356 78.7719L28.382 78.2142L27.9721 78.2013L24.4699 77.2502C23.7243 77.0477 23.09 77.1117 22.5671 77.4422C22.0353 77.7572 21.6515 78.3486 21.4158 79.2165C21.2598 79.791 21.2049 80.3799 21.2511 80.9831C21.285 81.5829 21.4095 82.1155 21.6244 82.5807L20.105 82.9556C19.8377 82.3449 19.6948 81.6629 19.6762 80.9097C19.6487 80.141 19.7396 79.3716 19.9487 78.6015C20.3106 77.2691 20.9134 76.3302 21.7571 75.785C22.6008 75.2397 23.6889 75.148 25.0213 75.5099L30.8888 77.1034L30.4356 78.7719ZM29.6792 81.9922C29.4833 82.7135 29.1884 83.3159 28.7946 83.7996C28.404 84.271 27.955 84.5954 27.4475 84.7725C26.9277 84.9464 26.3928 84.9586 25.8428 84.8092C25.3171 84.6665 24.8736 84.4148 24.5122 84.0541C24.154 83.6812 23.923 83.1788 23.819 82.5467C23.7183 81.9025 23.7991 81.0975 24.0614 80.1319L24.898 77.0514L26.1631 77.395L25.3465 80.4021C25.1075 81.2822 25.0931 81.9149 25.3035 82.3002C25.5139 82.6855 25.8269 82.9345 26.2425 83.0474C26.7192 83.1769 27.1557 83.092 27.552 82.7927C27.9361 82.4901 28.2194 82.0027 28.402 81.3304C28.5813 80.6703 28.5906 80.0559 28.43 79.4873C28.2728 78.9064 27.9429 78.4296 27.4403 78.0569L28.7451 78.0372C29.2565 78.4255 29.6037 78.9595 29.7866 79.6392C29.9573 80.3155 29.9215 81.0999 29.6792 81.9922ZM35.1669 67.4827C34.8217 68.1598 34.3976 68.7824 33.8947 69.3506C33.3862 69.9018 32.8389 70.3479 32.2527 70.6889L31.2673 69.568C31.7568 69.2773 32.2214 68.8957 32.6613 68.4233C33.0899 67.9451 33.4481 67.4239 33.7357 66.8597C34.0004 66.3406 34.1656 65.8632 34.2313 65.4275C34.3028 64.9806 34.2831 64.6009 34.1722 64.2884C34.0501 63.9702 33.8423 63.7363 33.5489 63.5868C33.1314 63.3739 32.7148 63.3961 32.2993 63.6535C31.8837 63.9108 31.5062 64.3724 31.1668 65.0382L30.3383 66.6632L29.1704 66.0677L29.9471 64.5443C30.1484 64.1493 30.2787 63.7821 30.3381 63.4427C30.3974 63.1033 30.377 62.8085 30.277 62.5585C30.1714 62.2914 29.9945 62.0946 29.7463 61.968C29.4754 61.8299 29.1952 61.8079 28.9056 61.902C28.6159 61.996 28.3311 62.192 28.0512 62.4901C27.7771 62.7768 27.5221 63.1516 27.2862 63.6142C27.0673 64.0714 26.8935 64.5657 26.7647 65.0972C26.6417 65.6174 26.575 66.1805 26.5646 66.7866L25.0707 66.5795C25.0873 65.9055 25.1602 65.2744 25.2894 64.6863C25.4131 64.0811 25.6016 63.5161 25.855 62.9912C26.2294 62.2011 26.6735 61.5531 27.1873 61.0473C27.6898 60.5357 28.2164 60.1999 28.7672 60.04C29.3237 59.8687 29.8558 59.9125 30.3636 60.1714C30.7925 60.39 31.1071 60.7211 31.3076 61.1645C31.4968 61.6022 31.5722 62.0956 31.5339 62.6448C31.4956 63.194 31.3269 63.762 31.0277 64.3488L30.6729 64.0826C31.185 63.0783 31.7852 62.389 32.4736 62.0148C33.1619 61.6407 33.8447 61.6262 34.5217 61.9714C35.0634 62.2475 35.451 62.6726 35.6844 63.2466C35.9065 63.8148 35.9779 64.4697 35.8985 65.2111C35.8135 65.9356 35.5696 66.6928 35.1669 67.4827ZM38.4495 61.3184L30.2409 55.4853L32.9484 51.6753C33.6307 50.7151 34.3522 50.0934 35.1128 49.8103C35.8704 49.5095 36.5847 49.5976 37.2559 50.0745C37.927 50.5515 38.2613 51.1853 38.2588 51.976C38.2534 52.7491 37.9461 53.5641 37.3371 54.4211L37.0996 53.9026C37.7966 52.9217 38.4945 52.3222 39.1934 52.104C39.8923 51.8859 40.5928 52.0263 41.2949 52.5252C42.0074 53.0315 42.3742 53.6961 42.3953 54.5192C42.4135 55.3246 42.0337 56.2745 41.256 57.369L38.4495 61.3184ZM38.3379 59.0481L40.0328 56.663C40.4731 56.0435 40.7103 55.5128 40.7446 55.071C40.7685 54.6218 40.5688 54.2468 40.1455 53.946C39.7118 53.6378 39.2942 53.5586 38.8926 53.7083C38.4879 53.8403 38.0692 54.2109 37.6363 54.8201L35.8754 57.2982L38.3379 59.0481ZM34.8067 56.5388L36.3915 54.3085C36.7951 53.7407 36.9963 53.2388 36.9953 52.8029C36.9912 52.3494 36.7982 51.9869 36.4161 51.7155C36.0238 51.4366 35.6231 51.3772 35.2142 51.5373C34.8125 51.687 34.41 52.0458 34.0064 52.6137L32.4216 54.8439L34.8067 56.5388ZM37.9259 46.9302L35.6535 43.672L36.6447 44.2133C36.4024 44.4894 36.112 44.6474 35.7736 44.6874C35.4435 44.7179 35.1356 44.6079 34.85 44.3572C34.5548 44.0982 34.401 43.8031 34.3883 43.4718C34.3745 43.1226 34.4846 42.8148 34.7186 42.5482C34.9609 42.2721 35.2524 42.1319 35.5932 42.1277C35.9245 42.115 36.2282 42.2299 36.5043 42.4722C36.5899 42.5474 36.6762 42.6315 36.7631 42.7246C36.8404 42.8093 36.9195 42.9208 37.0003 43.0592C37.0895 43.188 37.1953 43.3651 37.3177 43.5905L38.7154 46.0305L37.9259 46.9302ZM52.5549 45.0228L50.1469 42.4362L50.5885 42.4923L48.2383 44.6803C47.2556 45.5952 46.2919 46.1029 45.3472 46.2036C44.4119 46.2956 43.573 45.943 42.8308 45.1457C42.0367 44.2928 41.7289 43.3766 41.9073 42.3971C42.095 41.409 42.6802 40.4575 43.6629 39.5426L46.8892 36.539L53.7509 43.9094L52.5549 45.0228ZM47.2148 49.9942L46.5892 45.307L47.966 44.0252L48.6472 48.6608L47.2148 49.9942ZM49.7585 42.019L46.4312 38.4451L46.9894 38.6263L44.7921 40.6719C44.1803 41.2415 43.8153 41.7976 43.6974 42.3401C43.5707 42.8733 43.7491 43.3995 44.2324 43.9187C45.1301 44.8828 46.2 44.7867 47.4423 43.6301L49.6952 41.5328L49.7585 42.019ZM58.6006 40.4928C57.9761 40.926 57.3079 41.274 56.596 41.5366C55.8872 41.7816 55.194 41.9157 54.5163 41.9387L54.1784 40.4851C54.7472 40.4605 55.3371 40.3442 55.9481 40.1361C56.552 39.9176 57.1141 39.6279 57.6345 39.2669C58.1132 38.9347 58.4846 38.5923 58.7486 38.2396C59.0231 37.8796 59.1854 37.5358 59.2355 37.2081C59.2784 36.87 59.2061 36.5656 59.0183 36.295C58.7512 35.9099 58.3737 35.7325 57.8859 35.7626C57.398 35.7927 56.8471 36.0207 56.233 36.4467L54.7343 37.4864L53.9871 36.4092L55.3921 35.4345C55.7564 35.1818 56.0449 34.92 56.2577 34.649C56.4706 34.378 56.5921 34.1087 56.6223 33.8411C56.6556 33.5559 56.5929 33.2988 56.4341 33.0698C56.2608 32.82 56.0243 32.6681 55.7247 32.6139C55.425 32.5597 55.0813 32.5977 54.6937 32.7278C54.3165 32.8507 53.9146 33.0602 53.4879 33.3562C53.0788 33.6554 52.6918 34.0087 52.3269 34.416C51.9724 34.8161 51.6471 35.2807 51.3512 35.8097L50.1331 34.9204C50.4666 34.3345 50.8294 33.813 51.2215 33.356C51.6168 32.8814 52.0502 32.4728 52.5218 32.1302C53.2254 31.6113 53.9233 31.2505 54.6152 31.0479C55.3 30.835 55.9228 30.7883 56.4837 30.908C57.055 31.0204 57.5031 31.3108 57.828 31.7791C58.1023 32.1746 58.2229 32.6151 58.1897 33.1006C58.1493 33.5757 57.9824 34.0461 57.6888 34.5118C57.3952 34.9775 56.9779 35.3981 56.4367 35.7736L56.25 35.3712C57.1763 34.7286 58.0312 34.4053 58.8146 34.4014C59.5981 34.3974 60.2065 34.7077 60.6397 35.3321C60.9862 35.8317 61.1265 36.3895 61.0606 37.0057C60.9875 37.6114 60.7406 38.2221 60.3198 38.8377C59.9022 39.4357 59.3291 39.9874 58.6006 40.4928ZM70.9127 33.3103L65.2247 30.6937L66.1526 29.2024L72.8286 32.3414L70.9127 33.3103ZM64.4019 36.6029L59.8574 27.6167L61.4851 26.7935L66.0296 35.7798L64.4019 36.6029ZM63.6172 32.2305L62.9141 30.8401L65.8813 29.3396L66.5844 30.7299L63.6172 32.2305ZM66.7341 30.0155L65.1222 30.5752L66.3004 24.3584L68.0468 23.4752L66.7341 30.0155ZM75.4644 35.5919C75.0079 35.7446 74.5374 35.8153 74.0527 35.8038C73.572 35.8043 73.1273 35.7127 72.7185 35.5289L73.0232 33.9844C73.3398 34.1323 73.6624 34.218 73.9908 34.2417C74.3193 34.2653 74.6457 34.2229 74.9701 34.1144C75.3905 33.9737 75.7027 33.7491 75.9066 33.4404C76.1105 33.1318 76.2402 32.661 76.2956 32.028L76.4501 30.5138L76.5579 30.2373L77.4061 20.3166L79.0998 19.7499L77.9837 31.8039C77.9324 32.569 77.797 33.202 77.5772 33.7029C77.3695 34.1999 77.0875 34.5947 76.7314 34.8875C76.3792 35.1923 75.9569 35.4271 75.4644 35.5919ZM76.6315 31.535L68.9735 23.1379L70.7753 22.535L77.3325 29.7978L76.6315 31.535Z" fill="#181B20"/>
<circle cx="90" cy="21" r="2" fill="#181B20"/>
<circle cx="174" cy="130" r="2" fill="#181B20"/>
<circle cx="39" cy="150" r="2" fill="#181B20"/>
</svg>
