<svg width="236" height="97" fill="none" xmlns="http://www.w3.org/2000/svg"><g clip-path="url(#a)"><path d="M112.022 31.741H93.299L75.54 18.86 42.858 42.567v21.846H32.317v-27.78L75.54 5.278l36.482 26.462Z" fill="#FFC500"/><path d="M71.65 20.62H56.903v2.884l-13.68-9.923-32.682 23.707v27.103H0V31.353L43.224 0 71.65 20.62Z" fill="#FFC500"/><path d="M57.731 63.986V42.478h11.603c2.847 0 5.2.464 7.058 1.393 1.878.93 3.282 2.212 4.211 3.847.929 1.616 1.394 3.464 1.394 5.544 0 2.06-.465 3.898-1.394 5.514-.929 1.615-2.333 2.888-4.21 3.817-1.859.929-4.212 1.393-7.06 1.393H57.732Zm6.059-4.483h5.12c2.362 0 4.11-.525 5.24-1.575 1.152-1.05 1.727-2.484 1.727-4.302v-.788c0-1.858-.575-3.302-1.727-4.332-1.13-1.03-2.878-1.545-5.24-1.545h-5.12v12.542Zm32.979 4.847c-2.727 0-5.05-.475-6.968-1.424-1.898-.97-3.353-2.292-4.362-3.968-1.01-1.677-1.515-3.575-1.515-5.696 0-2.14.495-4.049 1.484-5.725 1.01-1.676 2.474-3 4.393-3.969 1.919-.97 4.241-1.454 6.968-1.454 2.746 0 5.069.485 6.967 1.454 1.919.95 3.373 2.262 4.362 3.939 1.01 1.676 1.515 3.594 1.515 5.755 0 2.12-.505 4.02-1.515 5.696-.989 1.676-2.443 2.999-4.362 3.968-1.898.95-4.22 1.424-6.967 1.424Zm0-4.605c2.06 0 3.695-.535 4.907-1.605 1.212-1.091 1.818-2.596 1.818-4.514v-.788c0-1.918-.606-3.413-1.818-4.483-1.212-1.09-2.847-1.636-4.907-1.636s-3.696.545-4.908 1.636c-1.212 1.07-1.818 2.565-1.818 4.483v.788c0 1.919.606 3.423 1.818 4.514 1.212 1.07 2.848 1.605 4.908 1.605Zm15.574 4.241V42.478h11.602c2.848 0 5.201.464 7.059 1.393 1.878.93 3.282 2.212 4.211 3.847.929 1.616 1.393 3.464 1.393 5.544 0 2.06-.464 3.898-1.393 5.514-.929 1.615-2.333 2.888-4.211 3.817-1.858.929-4.211 1.393-7.059 1.393h-11.602Zm6.059-4.483h5.119c2.363 0 4.11-.525 5.241-1.575 1.151-1.05 1.727-2.484 1.727-4.302v-.788c0-1.858-.576-3.302-1.727-4.332-1.131-1.03-2.878-1.545-5.241-1.545h-5.119v12.542Zm32.978 4.847c-2.726 0-5.049-.475-6.967-1.424-1.899-.97-3.353-2.292-4.363-3.968-1.009-1.677-1.514-3.575-1.514-5.696 0-2.14.495-4.049 1.484-5.725 1.01-1.676 2.474-3 4.393-3.969 1.918-.97 4.241-1.454 6.967-1.454 2.747 0 5.07.485 6.968 1.454 1.919.95 3.373 2.262 4.362 3.939 1.01 1.676 1.515 3.594 1.515 5.755 0 2.12-.505 4.02-1.515 5.696-.989 1.676-2.443 2.999-4.362 3.968-1.898.95-4.221 1.424-6.968 1.424Zm0-4.605c2.06 0 3.696-.535 4.908-1.605 1.212-1.091 1.818-2.596 1.818-4.514v-.788c0-1.918-.606-3.413-1.818-4.483-1.212-1.09-2.848-1.636-4.908-1.636-2.06 0-3.695.545-4.907 1.636-1.212 1.07-1.818 2.565-1.818 4.483v.788c0 1.919.606 3.423 1.818 4.514 1.212 1.07 2.847 1.605 4.907 1.605Zm15.575 4.241V42.478h9.148l7.21 14.935h.031l7.21-14.935h9.209v21.508h-6.059V48.052h-.03l-7.755 15.934h-5.544l-7.755-15.934h-.031v15.934h-5.634Zm45.992 0v-9.088l-11.39-12.42h7.301l7.179 7.937 7.18-7.937h7.18l-11.391 12.42v9.088h-6.059Zm-57.892 31.791V74.27h12.693c2.827 0 5.018.464 6.574 1.393 1.555.93 2.332 2.373 2.332 4.332 0 1.03-.262 1.96-.787 2.787-.526.828-1.384 1.484-2.575 1.97 1.373.464 2.352 1.09 2.938 1.877.586.788.879 1.747.879 2.878 0 2.08-.798 3.646-2.394 4.696-1.575 1.05-3.807 1.575-6.695 1.575h-12.965Zm12.723-17.116h-6.665v4.18h6.665c2.02 0 3.029-.656 3.029-1.968V80.6c0-1.293-1.009-1.939-3.029-1.939Zm-6.665 12.633h6.907c2.081 0 3.121-.697 3.121-2.09v-.273c0-1.293-1.04-1.939-3.121-1.939h-6.907v4.302Zm29.85 4.847c-2.343 0-4.362-.303-6.059-.91-1.676-.625-2.969-1.595-3.877-2.907-.909-1.313-1.364-3.03-1.364-5.15V74.269h6.059V86.9c0 .95.152 1.767.455 2.454.303.687.838 1.212 1.605 1.575.768.364 1.858.545 3.272.545 1.393 0 2.474-.181 3.241-.545.788-.363 1.333-.888 1.636-1.575.323-.687.485-1.505.485-2.454V74.27h5.907v12.905c0 2.12-.454 3.837-1.363 5.15-.909 1.312-2.211 2.282-3.908 2.908-1.676.606-3.706.909-6.089.909Zm14.65-.364V74.27h11.603c2.848 0 5.2.464 7.058 1.393 1.879.93 3.282 2.212 4.211 3.847.929 1.616 1.394 3.464 1.394 5.544 0 2.06-.465 3.898-1.394 5.514-.929 1.615-2.332 2.888-4.211 3.817-1.858.929-4.21 1.393-7.058 1.393h-11.603Zm6.059-4.483h5.12c2.363 0 4.11-.525 5.241-1.576 1.151-1.05 1.726-2.484 1.726-4.301v-.788c0-1.858-.575-3.302-1.726-4.332-1.131-1.03-2.878-1.545-5.241-1.545h-5.12v12.542Z" fill="#fff"/></g><defs><clipPath id="a"><path fill="#fff" d="M0 0h235.982v96.77H0z"/></clipPath></defs></svg>