<svg width="110" height="50" viewBox="0 0 110 50" fill="none" xmlns="http://www.w3.org/2000/svg">
<mask id="mask0_1433_6" style="mask-type:alpha" maskUnits="userSpaceOnUse" x="0" y="0" width="110" height="50">
<rect width="110" height="50" fill="#D9D9D9"/>
</mask>
<g mask="url(#mask0_1433_6)">
<path d="M6.22727 46V37.2727H7.52273V38.6364H7.63636C7.81818 38.1705 8.11174 37.8087 8.51705 37.5511C8.92235 37.2898 9.40909 37.1591 9.97727 37.1591C10.553 37.1591 11.0322 37.2898 11.4148 37.5511C11.8011 37.8087 12.1023 38.1705 12.3182 38.6364H12.4091C12.6326 38.1856 12.9678 37.8277 13.4148 37.5625C13.8617 37.2936 14.3977 37.1591 15.0227 37.1591C15.803 37.1591 16.4413 37.4034 16.9375 37.892C17.4337 38.3769 17.6818 39.1326 17.6818 40.1591V46H16.3409V40.1591C16.3409 39.5152 16.1648 39.0549 15.8125 38.7784C15.4602 38.5019 15.0455 38.3636 14.5682 38.3636C13.9545 38.3636 13.4792 38.5492 13.142 38.9205C12.8049 39.2879 12.6364 39.7538 12.6364 40.3182V46H11.2727V40.0227C11.2727 39.5265 11.1117 39.1269 10.7898 38.8239C10.4678 38.517 10.053 38.3636 9.54545 38.3636C9.19697 38.3636 8.87121 38.4564 8.56818 38.642C8.26894 38.8277 8.02652 39.0852 7.84091 39.4148C7.65909 39.7405 7.56818 40.1174 7.56818 40.5455V46H6.22727ZM25.6335 42.4318V37.2727H26.9744V46H25.6335V44.5227H25.5426C25.3381 44.9659 25.0199 45.3428 24.5881 45.6534C24.1563 45.9602 23.6108 46.1136 22.9517 46.1136C22.4062 46.1136 21.9214 45.9943 21.4972 45.7557C21.0729 45.5133 20.7396 45.1496 20.4972 44.6648C20.2547 44.1761 20.1335 43.5606 20.1335 42.8182V37.2727H21.4744V42.7273C21.4744 43.3636 21.6525 43.8712 22.0085 44.25C22.3684 44.6288 22.8267 44.8182 23.3835 44.8182C23.7169 44.8182 24.0559 44.733 24.4006 44.5625C24.7491 44.392 25.0407 44.1307 25.2756 43.7784C25.5142 43.4261 25.6335 42.9773 25.6335 42.4318ZM35.6122 39.2273L34.4077 39.5682C34.3319 39.3674 34.2202 39.1723 34.0724 38.983C33.9285 38.7898 33.7315 38.6307 33.4815 38.5057C33.2315 38.3807 32.9115 38.3182 32.5213 38.3182C31.9872 38.3182 31.5421 38.4413 31.1861 38.6875C30.8338 38.9299 30.6577 39.2386 30.6577 39.6136C30.6577 39.947 30.7789 40.2102 31.0213 40.4034C31.2637 40.5966 31.6425 40.7576 32.1577 40.8864L33.4531 41.2045C34.2334 41.3939 34.8149 41.6837 35.1974 42.0739C35.58 42.4602 35.7713 42.9583 35.7713 43.5682C35.7713 44.0682 35.6274 44.5152 35.3395 44.9091C35.0554 45.303 34.6577 45.6136 34.1463 45.8409C33.6349 46.0682 33.0402 46.1818 32.3622 46.1818C31.4721 46.1818 30.7353 45.9886 30.152 45.6023C29.5687 45.2159 29.1993 44.6515 29.044 43.9091L30.3168 43.5909C30.438 44.0606 30.6671 44.4129 31.0043 44.6477C31.3452 44.8826 31.7902 45 32.3395 45C32.9645 45 33.4607 44.8674 33.8281 44.6023C34.1993 44.3333 34.3849 44.0114 34.3849 43.6364C34.3849 43.3333 34.2789 43.0795 34.0668 42.875C33.8546 42.6667 33.5289 42.5114 33.0895 42.4091L31.6349 42.0682C30.8357 41.8788 30.2486 41.5852 29.8736 41.1875C29.5024 40.786 29.3168 40.2841 29.3168 39.6818C29.3168 39.1894 29.455 38.7538 29.7315 38.375C30.0118 37.9962 30.3925 37.6989 30.8736 37.483C31.3584 37.267 31.9077 37.1591 32.5213 37.1591C33.3849 37.1591 34.063 37.3485 34.5554 37.7273C35.0516 38.1061 35.4039 38.6061 35.6122 39.2273ZM41.5852 37.2727V38.4091H37.0625V37.2727H41.5852ZM38.3807 35.1818H39.7216V43.5C39.7216 43.8788 39.7765 44.1629 39.8864 44.3523C40 44.5379 40.1439 44.6629 40.3182 44.7273C40.4962 44.7879 40.6837 44.8182 40.8807 44.8182C41.0284 44.8182 41.1496 44.8106 41.2443 44.7955C41.339 44.7765 41.4148 44.7614 41.4716 44.75L41.7443 45.9545C41.6534 45.9886 41.5265 46.0227 41.3636 46.0568C41.2008 46.0947 40.9943 46.1136 40.7443 46.1136C40.3655 46.1136 39.9943 46.0322 39.6307 45.8693C39.2708 45.7064 38.9716 45.4583 38.733 45.125C38.4981 44.7917 38.3807 44.3712 38.3807 43.8636V35.1818ZM48.2841 46V34.3636H49.625V38.6591H49.7386C49.8371 38.5076 49.9735 38.3144 50.1477 38.0795C50.3258 37.8409 50.5795 37.6288 50.9091 37.4432C51.2424 37.2538 51.6932 37.1591 52.2614 37.1591C52.9962 37.1591 53.6439 37.3428 54.2045 37.7102C54.7652 38.0777 55.2027 38.5985 55.517 39.2727C55.8314 39.947 55.9886 40.7424 55.9886 41.6591C55.9886 42.5833 55.8314 43.3845 55.517 44.0625C55.2027 44.7367 54.767 45.2595 54.2102 45.6307C53.6534 45.9981 53.0114 46.1818 52.2841 46.1818C51.7235 46.1818 51.2746 46.089 50.9375 45.9034C50.6004 45.714 50.3409 45.5 50.1591 45.2614C49.9773 45.0189 49.8371 44.8182 49.7386 44.6591H49.5795V46H48.2841ZM49.6023 41.6364C49.6023 42.2955 49.6989 42.8769 49.892 43.3807C50.0852 43.8807 50.3674 44.2727 50.7386 44.5568C51.1098 44.8371 51.5644 44.9773 52.1023 44.9773C52.6629 44.9773 53.1307 44.8295 53.5057 44.5341C53.8845 44.2348 54.1686 43.8333 54.358 43.3295C54.5511 42.822 54.6477 42.2576 54.6477 41.6364C54.6477 41.0227 54.553 40.4697 54.3636 39.9773C54.178 39.4811 53.8958 39.089 53.517 38.8011C53.142 38.5095 52.6705 38.3636 52.1023 38.3636C51.5568 38.3636 51.0985 38.5019 50.7273 38.7784C50.3561 39.0511 50.0758 39.4337 49.8864 39.9261C49.697 40.4148 49.6023 40.9848 49.6023 41.6364ZM61.6989 46.1818C60.858 46.1818 60.1326 45.9962 59.5227 45.625C58.9167 45.25 58.4489 44.7273 58.1193 44.0568C57.7936 43.3826 57.6307 42.5985 57.6307 41.7045C57.6307 40.8106 57.7936 40.0227 58.1193 39.3409C58.4489 38.6553 58.9072 38.1212 59.4943 37.7386C60.0852 37.3523 60.7746 37.1591 61.5625 37.1591C62.017 37.1591 62.4659 37.2348 62.9091 37.3864C63.3523 37.5379 63.7557 37.7841 64.1193 38.125C64.483 38.4621 64.7727 38.9091 64.9886 39.4659C65.2045 40.0227 65.3125 40.7083 65.3125 41.5227V42.0909H58.5852V40.9318H63.9489C63.9489 40.4394 63.8504 40 63.6534 39.6136C63.4602 39.2273 63.1837 38.9223 62.8239 38.6989C62.4678 38.4754 62.0473 38.3636 61.5625 38.3636C61.0284 38.3636 60.5663 38.4962 60.1761 38.7614C59.7898 39.0227 59.4924 39.3636 59.2841 39.7841C59.0758 40.2045 58.9716 40.6553 58.9716 41.1364V41.9091C58.9716 42.5682 59.0852 43.1269 59.3125 43.5852C59.5436 44.0398 59.8636 44.3864 60.2727 44.625C60.6818 44.8598 61.1572 44.9773 61.6989 44.9773C62.0511 44.9773 62.3693 44.928 62.6534 44.8295C62.9413 44.7273 63.1894 44.5758 63.3977 44.375C63.6061 44.1705 63.767 43.9167 63.8807 43.6136L65.1761 43.9773C65.0398 44.4167 64.8106 44.803 64.4886 45.1364C64.1667 45.4659 63.7689 45.7235 63.2955 45.9091C62.822 46.0909 62.2898 46.1818 61.6989 46.1818ZM73.1932 40.75V46H71.8523V34.3636H73.1932V38.6364H73.3068C73.5114 38.1856 73.8182 37.8277 74.2273 37.5625C74.6402 37.2936 75.1894 37.1591 75.875 37.1591C76.4697 37.1591 76.9905 37.2784 77.4375 37.517C77.8845 37.7519 78.2311 38.1136 78.4773 38.6023C78.7273 39.0871 78.8523 39.7045 78.8523 40.4545V46H77.5114V40.5455C77.5114 39.8523 77.3314 39.3163 76.9716 38.9375C76.6155 38.5549 76.1212 38.3636 75.4886 38.3636C75.0492 38.3636 74.6553 38.4564 74.3068 38.642C73.9621 38.8277 73.6894 39.0985 73.4886 39.4545C73.2917 39.8106 73.1932 40.2424 73.1932 40.75ZM84.9645 46.1818C84.1236 46.1818 83.3982 45.9962 82.7884 45.625C82.1823 45.25 81.7145 44.7273 81.3849 44.0568C81.0592 43.3826 80.8963 42.5985 80.8963 41.7045C80.8963 40.8106 81.0592 40.0227 81.3849 39.3409C81.7145 38.6553 82.1728 38.1212 82.7599 37.7386C83.3509 37.3523 84.0402 37.1591 84.8281 37.1591C85.2827 37.1591 85.7315 37.2348 86.1747 37.3864C86.6179 37.5379 87.0213 37.7841 87.3849 38.125C87.7486 38.4621 88.0384 38.9091 88.2543 39.4659C88.4702 40.0227 88.5781 40.7083 88.5781 41.5227V42.0909H81.8509V40.9318H87.2145C87.2145 40.4394 87.116 40 86.919 39.6136C86.7259 39.2273 86.4493 38.9223 86.0895 38.6989C85.7334 38.4754 85.313 38.3636 84.8281 38.3636C84.294 38.3636 83.8319 38.4962 83.4418 38.7614C83.0554 39.0227 82.758 39.3636 82.5497 39.7841C82.3414 40.2045 82.2372 40.6553 82.2372 41.1364V41.9091C82.2372 42.5682 82.3509 43.1269 82.5781 43.5852C82.8092 44.0398 83.1293 44.3864 83.5384 44.625C83.9474 44.8598 84.4228 44.9773 84.9645 44.9773C85.3168 44.9773 85.6349 44.928 85.919 44.8295C86.2069 44.7273 86.455 44.5758 86.6634 44.375C86.8717 44.1705 87.0327 43.9167 87.1463 43.6136L88.4418 43.9773C88.3054 44.4167 88.0762 44.803 87.7543 45.1364C87.4323 45.4659 87.0346 45.7235 86.5611 45.9091C86.0876 46.0909 85.5554 46.1818 84.9645 46.1818ZM90.6179 46V37.2727H91.9134V38.5909H92.0043C92.1634 38.1591 92.4512 37.8087 92.8679 37.5398C93.2846 37.2708 93.7543 37.1364 94.277 37.1364C94.3755 37.1364 94.4986 37.1383 94.6463 37.142C94.794 37.1458 94.9058 37.1515 94.9815 37.1591V38.5227C94.9361 38.5114 94.8319 38.4943 94.669 38.4716C94.5099 38.4451 94.3414 38.4318 94.1634 38.4318C93.7391 38.4318 93.3603 38.5208 93.027 38.6989C92.6974 38.8731 92.4361 39.1155 92.2429 39.4261C92.0535 39.733 91.9588 40.0833 91.9588 40.4773V46H90.6179ZM99.9645 46.1818C99.1236 46.1818 98.3982 45.9962 97.7884 45.625C97.1823 45.25 96.7145 44.7273 96.3849 44.0568C96.0592 43.3826 95.8963 42.5985 95.8963 41.7045C95.8963 40.8106 96.0592 40.0227 96.3849 39.3409C96.7145 38.6553 97.1728 38.1212 97.7599 37.7386C98.3509 37.3523 99.0402 37.1591 99.8281 37.1591C100.283 37.1591 100.732 37.2348 101.175 37.3864C101.618 37.5379 102.021 37.7841 102.385 38.125C102.749 38.4621 103.038 38.9091 103.254 39.4659C103.47 40.0227 103.578 40.7083 103.578 41.5227V42.0909H96.8509V40.9318H102.214C102.214 40.4394 102.116 40 101.919 39.6136C101.726 39.2273 101.449 38.9223 101.089 38.6989C100.733 38.4754 100.313 38.3636 99.8281 38.3636C99.294 38.3636 98.8319 38.4962 98.4418 38.7614C98.0554 39.0227 97.758 39.3636 97.5497 39.7841C97.3414 40.2045 97.2372 40.6553 97.2372 41.1364V41.9091C97.2372 42.5682 97.3509 43.1269 97.5781 43.5852C97.8092 44.0398 98.1293 44.3864 98.5384 44.625C98.9474 44.8598 99.4228 44.9773 99.9645 44.9773C100.317 44.9773 100.635 44.928 100.919 44.8295C101.207 44.7273 101.455 44.5758 101.663 44.375C101.872 44.1705 102.033 43.9167 102.146 43.6136L103.442 43.9773C103.305 44.4167 103.076 44.803 102.754 45.1364C102.432 45.4659 102.035 45.7235 101.561 45.9091C101.088 46.0909 100.555 46.1818 99.9645 46.1818Z" fill="black"/>
<path d="M8.17045 31V4.81818H11.3409V28.1875H23.5114V31H8.17045ZM49.4918 17.9091C49.4918 20.6705 48.9933 23.0568 47.9961 25.0682C46.9989 27.0795 45.631 28.6307 43.8924 29.7216C42.1538 30.8125 40.168 31.358 37.935 31.358C35.7021 31.358 33.7163 30.8125 31.9776 29.7216C30.239 28.6307 28.8711 27.0795 27.8739 25.0682C26.8768 23.0568 26.3782 20.6705 26.3782 17.9091C26.3782 15.1477 26.8768 12.7614 27.8739 10.75C28.8711 8.73864 30.239 7.1875 31.9776 6.09659C33.7163 5.00568 35.7021 4.46023 37.935 4.46023C40.168 4.46023 42.1538 5.00568 43.8924 6.09659C45.631 7.1875 46.9989 8.73864 47.9961 10.75C48.9933 12.7614 49.4918 15.1477 49.4918 17.9091ZM46.4237 17.9091C46.4237 15.642 46.0444 13.7287 45.2859 12.169C44.5359 10.6094 43.5174 9.42898 42.2305 8.62784C40.9521 7.8267 39.5202 7.42614 37.935 7.42614C36.3498 7.42614 34.9137 7.8267 33.6268 8.62784C32.3484 9.42898 31.3299 10.6094 30.5714 12.169C29.8214 13.7287 29.4464 15.642 29.4464 17.9091C29.4464 20.1761 29.8214 22.0895 30.5714 23.6491C31.3299 25.2088 32.3484 26.3892 33.6268 27.1903C34.9137 27.9915 36.3498 28.392 37.935 28.392C39.5202 28.392 40.9521 27.9915 42.2305 27.1903C43.5174 26.3892 44.5359 25.2088 45.2859 23.6491C46.0444 22.0895 46.4237 20.1761 46.4237 17.9091ZM72.7205 13C72.4393 12.1392 72.0685 11.3679 71.6083 10.6861C71.1566 9.99574 70.6154 9.40767 69.9847 8.92188C69.3626 8.43608 68.6552 8.06534 67.8626 7.80966C67.07 7.55398 66.2006 7.42614 65.2546 7.42614C63.7035 7.42614 62.293 7.8267 61.0231 8.62784C59.7532 9.42898 58.7433 10.6094 57.9933 12.169C57.2433 13.7287 56.8683 15.642 56.8683 17.9091C56.8683 20.1761 57.2475 22.0895 58.006 23.6491C58.7646 25.2088 59.7915 26.3892 61.087 27.1903C62.3825 27.9915 63.8398 28.392 65.4592 28.392C66.9592 28.392 68.2802 28.0724 69.4222 27.4332C70.5728 26.7855 71.4677 25.8736 72.1069 24.6974C72.7546 23.5128 73.0785 22.1193 73.0785 20.517L74.0501 20.7216H66.1751V17.9091H76.1467V20.7216C76.1467 22.8778 75.6864 24.7528 74.766 26.3466C73.854 27.9403 72.5927 29.1761 70.9819 30.054C69.3796 30.9233 67.5387 31.358 65.4592 31.358C63.141 31.358 61.104 30.8125 59.3484 29.7216C57.6012 28.6307 56.2376 27.0795 55.2575 25.0682C54.2859 23.0568 53.8001 20.6705 53.8001 17.9091C53.8001 15.8381 54.0771 13.9759 54.631 12.3224C55.1935 10.6605 55.9862 9.24574 57.0089 8.07812C58.0316 6.91051 59.2418 6.01563 60.6396 5.39347C62.0373 4.77131 63.5756 4.46023 65.2546 4.46023C66.6353 4.46023 67.9222 4.66903 69.1154 5.08665C70.3171 5.49574 71.3867 6.07954 72.3242 6.83807C73.2702 7.58807 74.0586 8.48721 74.6893 9.53551C75.32 10.5753 75.7546 11.7301 75.9933 13H72.7205ZM103.668 17.9091C103.668 20.6705 103.169 23.0568 102.172 25.0682C101.175 27.0795 99.8068 28.6307 98.0682 29.7216C96.3295 30.8125 94.3438 31.358 92.1108 31.358C89.8778 31.358 87.892 30.8125 86.1534 29.7216C84.4148 28.6307 83.0469 27.0795 82.0497 25.0682C81.0526 23.0568 80.554 20.6705 80.554 17.9091C80.554 15.1477 81.0526 12.7614 82.0497 10.75C83.0469 8.73864 84.4148 7.1875 86.1534 6.09659C87.892 5.00568 89.8778 4.46023 92.1108 4.46023C94.3438 4.46023 96.3295 5.00568 98.0682 6.09659C99.8068 7.1875 101.175 8.73864 102.172 10.75C103.169 12.7614 103.668 15.1477 103.668 17.9091ZM100.599 17.9091C100.599 15.642 100.22 13.7287 99.4616 12.169C98.7116 10.6094 97.6932 9.42898 96.4062 8.62784C95.1278 7.8267 93.696 7.42614 92.1108 7.42614C90.5256 7.42614 89.0895 7.8267 87.8026 8.62784C86.5241 9.42898 85.5057 10.6094 84.7472 12.169C83.9972 13.7287 83.6222 15.642 83.6222 17.9091C83.6222 20.1761 83.9972 22.0895 84.7472 23.6491C85.5057 25.2088 86.5241 26.3892 87.8026 27.1903C89.0895 27.9915 90.5256 28.392 92.1108 28.392C93.696 28.392 95.1278 27.9915 96.4062 27.1903C97.6932 26.3892 98.7116 25.2088 99.4616 23.6491C100.22 22.0895 100.599 20.1761 100.599 17.9091Z" fill="black"/>
</g>
</svg>
