<svg width="231" height="97" viewBox="0 0 231 97" fill="none" xmlns="http://www.w3.org/2000/svg">
<path d="M112.022 31.7415H93.2998L75.541 18.8597L42.8584 42.5667V64.4134H32.3174V36.6321L75.541 5.27862L112.022 31.7415Z" fill="#FFC500"/>
<path d="M71.6504 20.6201H56.9033V23.5039L43.2236 13.5811L10.541 37.2881V64.3906H0V31.3535L43.2236 0L71.6504 20.6201Z" fill="#FFC500"/>
<path d="M57.7307 63.9863V42.4777H69.3332C72.1808 42.4777 74.5337 42.9422 76.3917 43.8712C78.2699 44.8002 79.6735 46.0827 80.6025 47.7185C81.5315 49.3342 81.9961 51.1821 81.9961 53.2623C81.9961 55.3223 81.5315 57.1601 80.6025 58.7758C79.6735 60.3915 78.2699 61.6638 76.3917 62.5928C74.5337 63.5218 72.1808 63.9863 69.3332 63.9863H57.7307ZM63.7894 59.5028H68.9091C71.272 59.5028 73.019 58.9778 74.1499 57.9276C75.3011 56.8774 75.8767 55.4435 75.8767 53.6258V52.8382C75.8767 50.9802 75.3011 49.5362 74.1499 48.5062C73.019 47.4762 71.272 46.9612 68.9091 46.9612H63.7894V59.5028ZM96.7681 64.3499C94.0416 64.3499 91.7191 63.8753 89.8005 62.9261C87.9021 61.9567 86.448 60.6338 85.4382 58.9576C84.4284 57.2813 83.9235 55.3829 83.9235 53.2623C83.9235 51.1216 84.4183 49.213 85.4079 47.5368C86.4177 45.8605 87.8819 44.5377 89.8005 43.5683C91.7191 42.5989 94.0416 42.1142 96.7681 42.1142C99.5147 42.1142 101.837 42.5989 103.736 43.5683C105.654 44.5175 107.108 45.8302 108.098 47.5065C109.108 49.1827 109.613 51.1014 109.613 53.2623C109.613 55.3829 109.108 57.2813 108.098 58.9576C107.108 60.6338 105.654 61.9567 103.736 62.9261C101.837 63.8753 99.5147 64.3499 96.7681 64.3499ZM96.7681 59.7452C98.8281 59.7452 100.464 59.21 101.676 58.1396C102.887 57.049 103.493 55.5445 103.493 53.6258V52.8382C103.493 50.9196 102.887 49.4251 101.676 48.3547C100.464 47.2641 98.8281 46.7188 96.7681 46.7188C94.7081 46.7188 93.0722 47.2641 91.8605 48.3547C90.6487 49.4251 90.0429 50.9196 90.0429 52.8382V53.6258C90.0429 55.5445 90.6487 57.049 91.8605 58.1396C93.0722 59.21 94.7081 59.7452 96.7681 59.7452ZM112.342 63.9863V42.4777H123.945C126.793 42.4777 129.145 42.9422 131.003 43.8712C132.882 44.8002 134.285 46.0827 135.214 47.7185C136.143 49.3342 136.608 51.1821 136.608 53.2623C136.608 55.3223 136.143 57.1601 135.214 58.7758C134.285 60.3915 132.882 61.6638 131.003 62.5928C129.145 63.5218 126.793 63.9863 123.945 63.9863H112.342ZM118.401 59.5028H123.521C125.884 59.5028 127.631 58.9778 128.762 57.9276C129.913 56.8774 130.488 55.4435 130.488 53.6258V52.8382C130.488 50.9802 129.913 49.5362 128.762 48.5062C127.631 47.4762 125.884 46.9612 123.521 46.9612H118.401V59.5028ZM151.38 64.3499C148.653 64.3499 146.331 63.8753 144.412 62.9261C142.514 61.9567 141.06 60.6338 140.05 58.9576C139.04 57.2813 138.535 55.3829 138.535 53.2623C138.535 51.1216 139.03 49.213 140.02 47.5368C141.029 45.8605 142.494 44.5377 144.412 43.5683C146.331 42.5989 148.653 42.1142 151.38 42.1142C154.127 42.1142 156.449 42.5989 158.347 43.5683C160.266 44.5175 161.72 45.8302 162.71 47.5065C163.72 49.1827 164.224 51.1014 164.224 53.2623C164.224 55.3829 163.72 57.2813 162.71 58.9576C161.72 60.6338 160.266 61.9567 158.347 62.9261C156.449 63.8753 154.127 64.3499 151.38 64.3499ZM151.38 59.7452C153.44 59.7452 155.076 59.21 156.287 58.1396C157.499 57.049 158.105 55.5445 158.105 53.6258V52.8382C158.105 50.9196 157.499 49.4251 156.287 48.3547C155.076 47.2641 153.44 46.7188 151.38 46.7188C149.32 46.7188 147.684 47.2641 146.472 48.3547C145.261 49.4251 144.655 50.9196 144.655 52.8382V53.6258C144.655 55.5445 145.261 57.049 146.472 58.1396C147.684 59.21 149.32 59.7452 151.38 59.7452ZM166.954 63.9863V42.4777H176.103L183.313 57.4126H183.343L190.553 42.4777H199.762V63.9863H193.704V48.0518H193.673L185.918 63.9863H180.374L172.619 48.0518H172.589V63.9863H166.954ZM212.947 63.9863V54.8982L201.556 42.4777H208.857L216.037 50.4147L223.217 42.4777H230.396L219.006 54.8982V63.9863H212.947Z" fill="#181B20"/>
<path d="M155.055 95.7772V74.2686H167.748C170.575 74.2686 172.767 74.7331 174.322 75.6621C175.877 76.5911 176.654 78.0351 176.654 79.9941C176.654 81.0241 176.392 81.9531 175.867 82.7811C175.342 83.6092 174.483 84.2655 173.292 84.7502C174.665 85.2147 175.645 85.8408 176.23 86.6284C176.816 87.4161 177.109 88.3754 177.109 89.5064C177.109 91.5865 176.311 93.1517 174.716 94.2019C173.14 95.2521 170.909 95.7772 168.021 95.7772H155.055ZM167.778 78.6612H161.114V82.8417H167.778C169.798 82.8417 170.808 82.1853 170.808 80.8726V80.6C170.808 79.3074 169.798 78.6612 167.778 78.6612ZM161.114 91.2937H168.021C170.101 91.2937 171.141 90.5969 171.141 89.2034V88.9308C171.141 87.6382 170.101 86.992 168.021 86.992H161.114V91.2937ZM190.963 96.1407C188.621 96.1407 186.601 95.8378 184.905 95.2319C183.228 94.6058 181.936 93.6364 181.027 92.3237C180.118 91.011 179.664 89.2943 179.664 87.1737V74.2686H185.722V86.9011C185.722 87.8503 185.874 88.6682 186.177 89.3549C186.48 90.0416 187.015 90.5666 187.782 90.9302C188.55 91.2937 189.64 91.4755 191.054 91.4755C192.448 91.4755 193.528 91.2937 194.296 90.9302C195.083 90.5666 195.629 90.0416 195.931 89.3549C196.255 88.6682 196.416 87.8503 196.416 86.9011V74.2686H202.323V87.1737C202.323 89.2943 201.869 91.011 200.96 92.3237C200.051 93.6364 198.749 94.6058 197.052 95.2319C195.376 95.8378 193.346 96.1407 190.963 96.1407ZM205.614 95.7772V74.2686H217.216C220.064 74.2686 222.417 74.7331 224.275 75.6621C226.153 76.5911 227.557 77.8735 228.486 79.5094C229.415 81.1251 229.879 82.973 229.879 85.0532C229.879 87.1131 229.415 88.951 228.486 90.5666C227.557 92.1823 226.153 93.4547 224.275 94.3837C222.417 95.3127 220.064 95.7772 217.216 95.7772H205.614ZM211.672 91.2937H216.792C219.155 91.2937 220.902 90.7686 222.033 89.7184C223.184 88.6682 223.76 87.2343 223.76 85.4167V84.6291C223.76 82.771 223.184 81.327 222.033 80.297C220.902 79.267 219.155 78.752 216.792 78.752H211.672V91.2937Z" fill="#181B20"/>
</svg>
