<svg width="80" height="12" viewBox="0 0 80 12" fill="none" xmlns="http://www.w3.org/2000/svg">
<g clip-path="url(#clip0_121_2186)">
<path d="M54.5767 0.973633C53.569 0.974544 52.5842 1.26842 51.7468 1.8181C50.9093 2.36779 50.2569 3.14861 49.8719 4.06186C49.4869 4.97511 49.3867 5.9798 49.5838 6.94891C49.781 7.91803 50.2667 8.80806 50.9796 9.50651C51.6925 10.205 52.6005 10.6805 53.5889 10.8729C54.5773 11.0654 55.6017 10.9661 56.5326 10.5878C57.4635 10.2094 58.2591 9.56884 58.8189 8.7471C59.3786 7.92537 59.6774 6.95934 59.6774 5.97113C59.6758 4.64538 59.1378 3.37444 58.1814 2.43742C57.2251 1.50041 55.9286 0.973937 54.5767 0.973633ZM54.5767 10.2048C53.7225 10.2048 52.8876 9.95643 52.1774 9.49104C51.4672 9.02566 50.9137 8.3642 50.5869 7.59032C50.2601 6.81643 50.1747 5.96488 50.3414 5.14337C50.5081 4.32186 50.9195 3.56728 51.5236 2.97507C52.1276 2.38287 52.8972 1.97963 53.7349 1.81635C54.5727 1.65308 55.441 1.73711 56.2301 2.05781C57.0191 2.37851 57.6935 2.92149 58.1678 3.61805C58.6422 4.31462 58.8953 5.1335 58.895 5.97113C58.891 7.09296 58.4347 8.1677 57.6257 8.96085C56.8167 9.754 55.7206 10.2012 54.5767 10.2048Z" fill="white"/>
<path fill-rule="evenodd" clip-rule="evenodd" d="M54.5759 0.5C53.4726 0.5 52.394 0.820838 51.4766 1.42195C50.5592 2.02305 49.8441 2.87744 49.4219 3.87706C48.9996 4.87668 48.889 5.97665 49.1042 7.03789C49.3193 8.09912 49.8506 9.07396 50.6307 9.83913C51.4108 10.6043 52.4047 11.1255 53.4868 11.3367C54.5689 11.5479 55.6906 11.4397 56.71 11.0258C57.7295 10.6119 58.6008 9.91087 59.214 9.01133C59.8272 8.11178 60.1545 7.05414 60.1548 5.97213C60.1535 4.5214 59.5654 3.13043 58.5195 2.1045C57.4735 1.07858 56.0553 0.501525 54.5759 0.5ZM54.5759 9.73119C53.8173 9.73119 53.0757 9.51056 52.4449 9.09721C51.8141 8.68385 51.3225 8.09634 51.0322 7.40897C50.742 6.7216 50.6661 5.96526 50.8142 5.23559C50.9623 4.50593 51.3277 3.83572 51.8642 3.30973C52.4007 2.78374 53.0843 2.42559 53.8284 2.28059C54.5725 2.13559 55.3437 2.21024 56.0445 2.4951C56.7454 2.77997 57.3443 3.26225 57.7656 3.88096C58.1869 4.49966 58.4117 5.227 58.4115 5.97098C58.4074 6.96723 58.002 7.92154 57.2835 8.6259C56.5651 9.33026 55.5918 9.72755 54.5759 9.73119Z" fill="white"/>
<path d="M73.5524 2.01524V5.58653H78.2291V6.36299H73.5524V9.92737H78.9163V10.6889H72.79V1.26758H78.9163V2.01524H73.5524Z" fill="white"/>
<path d="M69.6175 10.7032H68.7952L63.1482 2.55605V10.7032H62.3564V1.25656H63.2081L63.2528 1.31531L68.8258 9.35992V1.25195H69.6175V10.7032Z" fill="white"/>
<path d="M47.6681 1.25195V2.02842H44.306V10.7032H43.5143V2.02842H40.1533V1.25195H47.6681Z" fill="white"/>
<path d="M38.3393 8.31544C38.3261 8.70191 38.2242 9.08048 38.0411 9.42296C37.8581 9.76544 37.5986 10.063 37.282 10.2935C36.6523 10.7531 35.83 10.9835 34.9172 10.9835C34.8523 10.9854 34.7873 10.9804 34.7234 10.9686C33.7366 10.9386 32.8708 10.631 32.2435 10.0596C31.7198 9.58297 31.3866 8.93881 31.3037 8.24287V8.08389H32.0837L32.0955 8.22674C32.1829 8.7386 32.4407 9.20768 32.8285 9.56079C33.3067 9.98588 33.9633 10.2048 34.7704 10.2347C35.5774 10.2647 36.2647 10.0884 36.758 9.73589C36.9928 9.57626 37.1857 9.36427 37.3207 9.11733C37.4556 8.8704 37.529 8.59557 37.5346 8.31544C37.5651 7.68529 37.2808 7.20143 36.6981 6.81781C36.1601 6.4722 35.4282 6.26138 34.8456 6.08512L34.5319 5.99757L34.3028 5.92729C33.7648 5.76601 33.1069 5.56095 32.5689 5.1946C31.9122 4.75453 31.5833 4.16815 31.6127 3.45044C31.6195 3.08958 31.7156 2.73575 31.8925 2.41931C32.0695 2.10287 32.3222 1.83328 32.6288 1.63369C33.242 1.20859 34.1078 0.973577 35.0347 1.00353C36.4996 1.06228 37.6497 1.78 38.1278 2.93778L38.1431 2.98156L37.3807 3.18662C37.0047 2.3226 36.1131 1.78 35.0077 1.7512C34.2159 1.73622 33.5733 1.8975 33.1281 2.20509C32.91 2.34646 32.7303 2.53785 32.6046 2.76268C32.4789 2.98751 32.411 3.239 32.4068 3.49536C32.3927 3.97922 32.6312 4.36054 33.1845 4.68195C33.692 4.97572 34.3792 5.19576 35.0077 5.37317L35.1721 5.41694C35.7995 5.60818 36.5912 5.84204 37.2338 6.26714C37.9951 6.73256 38.3839 7.43645 38.3393 8.31544Z" fill="white"/>
<path d="M24.1239 1.25196H21.1201V10.6986H24.1239C26.7976 10.6986 28.9791 8.57424 28.9791 5.97527C28.9705 4.71861 28.4549 3.51642 27.5451 2.63138C26.6354 1.74633 25.4054 1.25041 24.1239 1.25196ZM24.1239 9.9417H21.8919V2.0146H24.1239C24.6605 2.00563 25.1935 2.10152 25.6919 2.29668C26.1903 2.49184 26.644 2.78236 27.0267 3.1513C27.4094 3.52024 27.7133 3.96021 27.9208 4.44555C28.1283 4.93089 28.2351 5.45188 28.2351 5.97815C28.2351 6.50441 28.1283 7.02541 27.9208 7.51075C27.7133 7.99609 27.4094 8.43606 27.0267 8.805C26.644 9.17394 26.1903 9.46446 25.6919 9.65962C25.1935 9.85478 24.6605 9.95067 24.1239 9.9417Z" fill="white"/>
<path fill-rule="evenodd" clip-rule="evenodd" d="M74.0357 2.48875V5.11653H78.7123V6.84111H74.0357V9.45275H79.3995V11.1635H72.3076V0.792969H79.3995V2.48875H74.0357Z" fill="white"/>
<path fill-rule="evenodd" clip-rule="evenodd" d="M70.1021 0.779297V11.1775H68.4692L63.6316 4.09253V11.1775H61.873V0.779297H63.4496L63.6469 1.0362L68.3435 7.81473V0.779297H70.1021Z" fill="white"/>
<path fill-rule="evenodd" clip-rule="evenodd" d="M48.1518 0.779297V2.50388H44.7896V11.1775H43.0311V2.50388H39.6689V0.779297H48.1518Z" fill="white"/>
<path fill-rule="evenodd" clip-rule="evenodd" d="M38.822 8.33312C38.8054 8.78874 38.6846 9.23488 38.4687 9.63864C38.2528 10.0424 37.9472 10.3935 37.5745 10.666C36.8485 11.1913 35.9204 11.447 34.9266 11.447H34.9207C34.8421 11.448 34.7635 11.4426 34.6858 11.4309C33.6285 11.3929 32.6499 11.0554 31.9286 10.3941C31.3199 9.84139 30.9321 9.09387 30.835 8.28588V8.25708V7.60964H32.543L32.59 8.16607C32.6622 8.56623 32.8651 8.93254 33.168 9.20981C33.5392 9.53814 34.0749 9.73398 34.8021 9.76048C35.5292 9.78697 36.1049 9.62569 36.4878 9.35266C36.6628 9.23558 36.8066 9.07908 36.9071 8.89627C37.0077 8.71347 37.0621 8.50969 37.0658 8.30201V8.29279C37.0869 7.85618 36.9107 7.51863 36.4444 7.2145C36.0062 6.92764 35.4035 6.74677 34.8256 6.57282L34.7222 6.54171L34.4027 6.45185L34.1583 6.37467C33.6273 6.21569 32.9037 5.99335 32.2975 5.58092C31.5234 5.06366 31.0969 4.33212 31.1322 3.43239C31.1418 2.99818 31.2578 2.5726 31.4704 2.19163C31.6831 1.81065 31.9861 1.48546 32.3539 1.24354C33.067 0.749319 34.042 0.495873 35.0558 0.52813C36.6734 0.592644 38.015 1.39676 38.58 2.7573L38.5859 2.77113L38.7668 3.30567L37.1057 3.75265L36.9401 3.37133C36.6523 2.70892 35.9474 2.24926 34.9959 2.22737C34.2699 2.21355 33.7401 2.36446 33.4029 2.59487C33.2463 2.69471 33.1174 2.83125 33.028 2.99215C32.9386 3.15304 32.8914 3.33325 32.8908 3.51649C32.8824 3.65182 32.9173 3.78634 32.9906 3.90127C33.1056 4.05889 33.2559 4.18855 33.43 4.28028C33.8799 4.53949 34.5119 4.74109 35.1369 4.92081L35.3037 4.96459H35.3107L35.3765 4.98532C35.9827 5.1685 36.8074 5.41849 37.4911 5.87008C38.3968 6.4219 38.8749 7.28247 38.822 8.33312Z" fill="white"/>
<path fill-rule="evenodd" clip-rule="evenodd" d="M24.1243 0.7793H20.6377V11.1775H24.1243C27.0612 11.1775 29.4635 8.84464 29.4635 5.98531C29.457 4.60137 28.8914 3.27639 27.8907 2.30059C26.8899 1.3248 25.5356 0.777761 24.1243 0.7793ZM24.1243 9.46789H22.381V2.48891H24.1243C25.0681 2.48891 25.9731 2.85655 26.6404 3.51096C27.3077 4.16536 27.6826 5.05293 27.6826 5.9784C27.6826 6.90387 27.3077 7.79143 26.6404 8.44584C25.9731 9.10025 25.0681 9.46789 24.1243 9.46789Z" fill="white"/>
<path fill-rule="evenodd" clip-rule="evenodd" d="M13.2318 2.48875V5.11653H17.8932V6.84111H13.2318V9.45275H18.5804V11.1635H11.4873V0.792969H18.5804V2.48875H13.2318Z" fill="white"/>
<path fill-rule="evenodd" clip-rule="evenodd" d="M9.66512 11.1641H7.59875L5.34324 7.53641H2.55557L1.51828 5.84293H5.81314C6.03868 5.84293 6.26201 5.79936 6.47039 5.71472C6.67876 5.63008 6.86809 5.50602 7.02758 5.34962C7.18706 5.19322 7.31357 5.00755 7.39988 4.80321C7.48619 4.59886 7.53061 4.37985 7.53061 4.15867C7.53061 3.93748 7.48619 3.71847 7.39988 3.51413C7.31357 3.30978 7.18706 3.12411 7.02758 2.96771C6.86809 2.81131 6.67876 2.68725 6.47039 2.60261C6.26201 2.51797 6.03868 2.4744 5.81314 2.4744H1.06952L0.0322266 0.795898H5.81314C6.59526 0.799476 7.35273 1.06471 7.96029 1.54773C8.56785 2.03076 8.98912 2.70266 9.15445 3.45234C9.31978 4.20202 9.21926 4.98458 8.86953 5.67064C8.51979 6.3567 7.94178 6.90517 7.23105 7.22536L9.66512 11.1641Z" fill="white"/>
<path d="M0.352539 9.08984H2.46708V11.1635H0.352539V9.08984Z" fill="#E70000"/>
</g>
<defs>
<clipPath id="clip0_121_2186">
<rect width="80" height="11" fill="white" transform="translate(0 0.5)"/>
</clipPath>
</defs>
</svg>
