<svg width="26" height="18" viewBox="0 0 26 18" fill="none" xmlns="http://www.w3.org/2000/svg">
<path d="M23.5492 0H2.44922C1.21112 0 0.199219 1.00745 0.199219 2.25V15.75C0.199219 16.993 1.21177 18 2.44922 18H23.5492C24.7873 18 25.7992 16.9925 25.7992 15.75V2.25C25.7992 1.00715 24.7868 0 23.5492 0ZM23.2037 1.5L13.5804 11.1547C13.2872 11.4488 12.7114 11.449 12.418 11.1547L2.79472 1.5H23.2037ZM1.69922 15.4742V2.52575L8.15247 9L1.69922 15.4742ZM2.79472 16.5L9.21142 10.0624L11.3557 12.2137C12.2344 13.0952 13.7644 13.0949 14.6428 12.2137L16.7871 10.0624L23.2037 16.5H2.79472ZM24.2992 15.4742L17.846 9L24.2992 2.52575V15.4742Z" fill="#181B20"/>
</svg>
