<svg width="121" height="121" viewBox="0 0 121 121" fill="none" xmlns="http://www.w3.org/2000/svg">
<path opacity="0.9" d="M116 105.813V105.795C116 105.794 116 105.792 116 105.79V15.2757C116 15.274 116 15.2722 116 15.2712V13.0079L60.265 38.3278L7.84296 14.3022L7.51413 14.0695C7.49326 14.0544 7.47097 14.0447 7.44915 14.0322C7.41242 14.0083 7.37475 13.9843 7.33536 13.9647C7.31809 13.955 7.30208 13.9461 7.28435 13.9381C7.27791 13.9355 7.27054 13.93 7.2641 13.9265C7.23977 13.9158 7.21466 13.9105 7.19017 13.9017C7.15156 13.8857 7.11311 13.8723 7.07371 13.8607C7.05645 13.8554 7.03949 13.8501 7.02223 13.8465C7.01391 13.8448 7.00544 13.8404 6.99665 13.8377C6.97106 13.8332 6.94516 13.8324 6.91958 13.8279C6.8794 13.8208 6.83985 13.8155 6.7992 13.8119C6.78632 13.8101 6.77455 13.8084 6.76168 13.8074L5 13V108L6.74128 107.279C6.83435 107.275 6.92649 107.263 7.01689 107.241C7.0373 107.237 7.05723 107.231 7.07795 107.226C7.0927 107.222 7.1073 107.218 7.12253 107.213C7.13979 107.207 7.15501 107.2 7.17228 107.194C7.22643 107.173 7.27838 107.15 7.32939 107.123C7.36439 107.106 7.3972 107.089 7.42985 107.067C7.44586 107.059 7.46265 107.051 7.47835 107.042C7.48258 107.038 7.48871 107.037 7.49341 107.035L7.74219 106.864L60.4997 84.9995L116 108V105.814V105.813H116ZM49.7446 59.4486L17.5502 24.8208L57.9975 53.5941L49.7446 59.4486ZM7.89349 24.5756L18.529 60.9782L7.89349 96.6825V24.5756ZM21.5514 60.9853L11.4107 26.2776L31.6391 60.9747L11.4242 94.9851L21.5514 60.9853ZM35.0194 60.9898L14.572 25.917L47.1629 60.9729L14.6277 95.2952L35.0194 60.9898ZM49.3704 62.903L58.0176 68.8303L17.287 96.7491L49.3704 62.903ZM52.2322 61.2943L60.5397 55.4025L68.9151 61.3609L60.6215 67.0447L52.2322 61.2943ZM99.6921 60.7011L109.9 95.1885L89.6043 61.2819L109.749 26.4915L99.6921 60.7011ZM113.107 25.3493V95.805L102.714 60.6975L113.107 25.3493ZM86.2245 61.3067L106.594 95.3386L74.0813 61.2766L106.692 25.9614L86.2245 61.3067ZM71.5932 59.6512L63.0832 53.5987L103.95 24.6139L71.5932 59.6512ZM71.6987 63.0238L103.762 96.6152L63.2273 68.8313L71.6987 63.0238ZM59.6727 41.3077L60.2602 41.5777L101.105 23.022L60.541 51.7908L20.6972 23.4456L59.6727 41.3077ZM19.5574 98.7646L60.6224 70.6156L102.06 99.0203L60.4995 81.7961L19.5574 98.7646Z" fill="#FFC500"/>
</svg>
