<svg xmlns="http://www.w3.org/2000/svg">
  <symbol id="catalog" viewBox="0 0 24 24" xmlns="http://www.w3.org/2000/svg">
    <path d="M5.46655 1.20312C6.59812 1.20312 7.68335 1.65264 8.48349 2.45279C9.28366 3.25293 9.73311 4.33815 9.73311 5.46973C9.73311 6.6013 9.28366 7.68653 8.48349 8.48667C7.68335 9.28679 6.59812 9.73633 5.46655 9.73633C4.33498 9.73633 3.24975 9.28679 2.44961 8.48667C1.64946 7.68653 1.19995 6.6013 1.19995 5.46973C1.19995 4.33815 1.64946 3.25293 2.44961 2.45279C3.24975 1.65264 4.33498 1.20312 5.46655 1.20312Z" stroke="currentColor" stroke-width="1.625" stroke-linecap="round" stroke-linejoin="round"/>
    <path d="M10.8 10.8046L8.47974 8.48438" stroke="currentColor" stroke-width="1.625" stroke-linecap="round" stroke-linejoin="round"/>
    <path d="M21.1764 1.45312H14.8235C14.0681 1.45312 13.4558 2.06544 13.4558 2.82077V9.17371C13.4558 9.92904 14.0681 10.5414 14.8235 10.5414H21.1764C21.9317 10.5414 22.544 9.92904 22.544 9.17371V2.82077C22.544 2.06544 21.9317 1.45312 21.1764 1.45312Z" stroke="currentColor" stroke-width="1.625"/>
    <path d="M9.1764 13.4531H2.82346C2.06813 13.4531 1.45581 14.0654 1.45581 14.8208V21.1737C1.45581 21.929 2.06813 22.5414 2.82346 22.5414H9.1764C9.93173 22.5414 10.544 21.929 10.544 21.1737V14.8208C10.544 14.0654 9.93173 13.4531 9.1764 13.4531Z" stroke="currentColor" stroke-width="1.625"/>
    <path d="M21.1764 13.4531H14.8235C14.0681 13.4531 13.4558 14.0654 13.4558 14.8208V21.1737C13.4558 21.929 14.0681 22.5414 14.8235 22.5414H21.1764C21.9317 22.5414 22.544 21.929 22.544 21.1737V14.8208C22.544 14.0654 21.9317 13.4531 21.1764 13.4531Z" stroke="currentColor" stroke-width="1.625"/>
  </symbol>
  <symbol id="home" viewBox="0 0 24 24" xmlns="http://www.w3.org/2000/svg">
    <path d="M20 17.0002V11.4522C20 10.9179 19.9995 10.6506 19.9346 10.4019C19.877 10.1816 19.7825 9.97307 19.6546 9.78464C19.5102 9.57201 19.3096 9.39569 18.9074 9.04383L14.1074 4.84383C13.3608 4.19054 12.9875 3.86406 12.5674 3.73982C12.1972 3.63035 11.8026 3.63035 11.4324 3.73982C11.0126 3.86397 10.6398 4.19014 9.89436 4.84244L5.09277 9.04383C4.69064 9.39569 4.49004 9.57201 4.3457 9.78464C4.21779 9.97307 4.12255 10.1816 4.06497 10.4019C4 10.6506 4 10.9179 4 11.4522V17.0002C4 17.932 4 18.3978 4.15224 18.7654C4.35523 19.2554 4.74432 19.6452 5.23438 19.8482C5.60192 20.0005 6.06786 20.0005 6.99974 20.0005C7.93163 20.0005 8.39808 20.0005 8.76562 19.8482C9.25568 19.6452 9.64467 19.2555 9.84766 18.7654C9.9999 18.3979 10 17.932 10 17.0001V16.0001C10 14.8955 10.8954 14.0001 12 14.0001C13.1046 14.0001 14 14.8955 14 16.0001V17.0001C14 17.932 14 18.3979 14.1522 18.7654C14.3552 19.2555 14.7443 19.6452 15.2344 19.8482C15.6019 20.0005 16.0679 20.0005 16.9997 20.0005C17.9316 20.0005 18.3981 20.0005 18.7656 19.8482C19.2557 19.6452 19.6447 19.2554 19.8477 18.7654C19.9999 18.3978 20 17.932 20 17.0002Z" stroke="currentColor" stroke-width="1.5" stroke-linecap="round" stroke-linejoin="round"/>
  </symbol>
  <symbol id="user" viewBox="0 0 24 24" xmlns="http://www.w3.org/2000/svg">
    <path d="M20 21C20 18.2386 16.4183 16 12 16C7.58172 16 4 18.2386 4 21M12 13C9.23858 13 7 10.7614 7 8C7 5.23858 9.23858 3 12 3C14.7614 3 17 5.23858 17 8C17 10.7614 14.7614 13 12 13Z" stroke="currentColor" stroke-width="1.5" stroke-linecap="round" stroke-linejoin="round"/>
  </symbol>
  <symbol id="fav" viewBox="0 0 24 24" xmlns="http://www.w3.org/2000/svg">
    <path d="M19.2373 6.23731C20.7839 7.78395 20.8432 10.2727 19.3718 11.8911L11.9995 20.0001L4.62812 11.8911C3.15679 10.2727 3.21605 7.7839 4.76269 6.23726C6.48961 4.51034 9.33372 4.66814 10.8594 6.5752L12 8.00045L13.1396 6.57504C14.6653 4.66798 17.5104 4.51039 19.2373 6.23731Z" stroke="currentColor" stroke-width="1.5" stroke-linecap="round" stroke-linejoin="round"/>
  </symbol>
  <symbol id="cart" viewBox="0 0 24 24" xmlns="http://www.w3.org/2000/svg">
    <path d="M3 3H3.26835C3.74213 3 3.97943 3 4.17267 3.08548C4.34304 3.16084 4.48871 3.28218 4.59375 3.43604C4.71269 3.61026 4.75564 3.8429 4.84137 4.30727L7.00004 16L17.4218 16C17.875 16 18.1023 16 18.29 15.9199C18.4559 15.8492 18.5989 15.7346 18.7051 15.5889C18.8252 15.4242 18.8761 15.2037 18.9777 14.7631L18.9785 14.76L20.5477 7.95996L20.5481 7.95854C20.7023 7.29016 20.7796 6.95515 20.6947 6.69238C20.6202 6.46182 20.4635 6.26634 20.2556 6.14192C20.0184 6 19.6758 6 18.9887 6H5.5M18 21C17.4477 21 17 20.5523 17 20C17 19.4477 17.4477 19 18 19C18.5523 19 19 19.4477 19 20C19 20.5523 18.5523 21 18 21ZM8 21C7.44772 21 7 20.5523 7 20C7 19.4477 7.44772 19 8 19C8.55228 19 9 19.4477 9 20C9 20.5523 8.55228 21 8 21Z" stroke="currentColor" stroke-width="1.5" stroke-linecap="round" stroke-linejoin="round"/>
  </symbol>
</svg>