<svg width="50" height="50" viewBox="0 0 50 50" fill="none" xmlns="http://www.w3.org/2000/svg">
<g clip-path="url(#clip0_1514_60)">
<path d="M49.8921 38.7409C49.7507 38.3147 48.851 37.687 47.1935 36.8591C46.7445 36.5982 46.1047 36.2436 45.2768 35.7937C44.5222 35.3847 43.7705 34.9703 43.0218 34.5504C42.3832 34.1929 41.7498 33.8261 41.1218 33.4502C41.0273 33.3791 40.7314 33.1723 40.2343 32.8283C39.7366 32.4852 39.317 32.2306 38.973 32.0646C38.6299 31.8995 38.2923 31.8164 37.9609 31.8164C37.4875 31.8164 36.8962 32.154 36.1862 32.8283C35.4739 33.5055 34.8206 34.2423 34.2335 35.0305C33.6418 35.8239 33.0143 36.5573 32.3521 37.232C31.6889 37.907 31.144 38.2442 30.7184 38.2442C30.5047 38.2442 30.2383 38.1846 29.919 38.0671C29.5999 37.9488 29.3571 37.8475 29.1904 37.7657C29.0252 37.6823 28.7418 37.5171 28.339 37.2677C27.9356 37.0191 27.7112 36.8829 27.6639 36.8591C24.4207 35.0595 21.6393 32.9998 19.319 30.6805C16.9994 28.3598 14.9395 25.5786 13.1403 22.3351C13.1167 22.2877 12.9803 22.0627 12.7319 21.6604C12.4831 21.2578 12.3173 20.9741 12.2345 20.8079C12.1516 20.6424 12.051 20.3996 11.9329 20.0801C11.8147 19.7605 11.7554 19.4944 11.7554 19.2811C11.7554 18.8552 12.0928 18.3104 12.7676 17.6475C13.4422 16.9849 14.1763 16.3573 14.9691 15.7659C15.7571 15.1788 16.4937 14.5255 17.1707 13.8133C17.8453 13.1029 18.1827 12.5114 18.1827 12.038C18.1827 11.7068 18.0998 11.3691 17.9343 11.0259C17.7686 10.682 17.5141 10.2624 17.1707 9.76497C16.8272 9.26783 16.6201 8.97218 16.5489 8.87703C16.1732 8.2491 15.8063 7.61591 15.4484 6.97765C15.0287 6.22893 14.6143 5.47721 14.2053 4.72254C13.7556 3.89442 13.4008 3.25499 13.1401 2.80524C12.312 1.14839 11.6847 0.248384 11.2585 0.106841C11.0927 0.0358211 10.8439 0 10.5128 0C9.87328 0 9.03895 0.11816 8.00922 0.355226C6.97911 0.591918 6.16854 0.840178 5.57662 1.101C4.3929 1.59789 3.1383 3.04193 1.81242 5.43261C0.605075 7.6575 0.00146484 9.85963 0.00146484 12.0374C0.00146484 12.6761 0.042883 13.2975 0.125719 13.9017C0.208555 14.5053 0.356566 15.186 0.569876 15.9437C0.782812 16.7012 0.954579 17.2639 1.08443 17.6303C1.21441 17.997 1.45707 18.6538 1.81229 19.6011C2.16702 20.5481 2.38033 21.1278 2.45135 21.3409C3.27984 23.6611 4.26231 25.7323 5.39851 27.5554C7.26792 30.5855 9.81905 33.717 13.0504 36.9486C16.2819 40.1799 19.4128 42.7309 22.4431 44.6011C24.2659 45.7372 26.3379 46.7195 28.6577 47.5486C28.8709 47.6193 29.4506 47.8321 30.3973 48.188C31.3443 48.543 32.0014 48.7857 32.368 48.9159C32.7348 49.0463 33.2977 49.2182 34.0545 49.4315C34.813 49.6448 35.4931 49.7928 36.0967 49.8762C36.7006 49.958 37.3222 50.0001 37.961 50.0001C40.1386 50.0001 42.3409 49.3961 44.5661 48.1889C46.9565 46.8635 48.4002 45.6087 48.8974 44.4241C49.1588 43.8328 49.4064 43.022 49.6431 41.9919C49.8806 40.9623 49.9985 40.1281 49.9985 39.4886C49.9992 39.1562 49.9635 38.908 49.8921 38.7409Z" fill="black"/>
</g>
<defs>
<clipPath id="clip0_1514_60">
<rect width="50" height="50" fill="white"/>
</clipPath>
</defs>
</svg>
