<svg width="18" height="32" viewBox="0 0 18 32" fill="none" xmlns="http://www.w3.org/2000/svg">
<path d="M13.9909 1H4.00914C2.24755 1.00198 0.820149 2.42945 0.818359 4.19103V27.8091C0.820085 29.5707 2.24762 30.9981 4.00914 30.9999H13.9909C15.7525 30.9981 17.1799 29.5706 17.182 27.8091V4.19103C17.18 2.42945 15.7525 1.00205 13.9909 1ZM15.8182 27.8091C15.8171 28.8178 14.9997 29.6353 13.9909 29.6363H4.00914C3.00041 29.6353 2.18293 28.8178 2.18191 27.8091V4.19103C2.18293 3.18205 3.00041 2.36457 4.00914 2.36355H13.9909C14.9997 2.36457 15.8171 3.18205 15.8182 4.19103V27.8091Z" fill="#181B20" stroke="#181B20" stroke-width="0.5"/>
<path d="M11.0462 3.72729H6.95534C6.57885 3.72729 6.27344 4.03239 6.27344 4.40894C6.27344 4.7855 6.57879 5.09084 6.95534 5.09084H11.0462C11.4227 5.09084 11.7279 4.7855 11.7279 4.40894C11.7279 4.03239 11.4228 3.72729 11.0462 3.72729ZM10.3643 26.9089C10.3643 27.6622 9.7539 28.2727 9.00079 28.2727C8.24749 28.2727 7.63699 27.6623 7.63699 26.9089C7.63699 26.1559 8.24743 25.5454 9.00079 25.5454C9.75384 25.5454 10.3643 26.1558 10.3643 26.9089Z" fill="#181B20" stroke="#181B20" stroke-width="0.5"/>
</svg>
