<svg width="16" height="12" viewBox="0 0 16 12" fill="none" xmlns="http://www.w3.org/2000/svg"><path d="M15.3764 1.86114C14.7988 1.17944 13.7325 0.901367 11.6961 0.901367L4.30379 0.901367C2.22075 0.901367 1.13636 1.19738 0.560981 1.92315C-5.38169e-10 2.63078 -8.62623e-10 3.67343 -1.31168e-09 5.11647L-2.16757e-09 7.8669C-3.03753e-09 10.6625 0.6656 12.082 4.30379 12.082L11.6961 12.082C13.4621 12.082 14.4407 11.8366 15.0738 11.235C15.723 10.6181 16 9.61077 16 7.8669L16 5.11647C16 3.59466 15.9566 2.54587 15.3764 1.86114ZM10.2721 6.87141L6.91525 8.61338C6.84021 8.65233 6.75814 8.67165 6.67618 8.67165C6.58338 8.67165 6.49079 8.64684 6.40877 8.59754C6.25435 8.50463 6.16005 8.33843 6.16005 8.15917L6.16005 4.6864C6.16005 4.50744 6.25409 4.34139 6.40821 4.24843C6.56237 4.15547 6.75412 4.14911 6.91406 4.23162L10.2709 5.96237C10.4417 6.05041 10.5489 6.22548 10.5492 6.41648C10.5494 6.60763 10.4426 6.78295 10.2721 6.87141Z" fill="white" /></svg>