<svg xmlns="http://www.w3.org/2000/svg">
    <symbol id="fav" viewBox="0 0 24 24" xmlns="http://www.w3.org/2000/svg">
        <path d="M19.2373 6.23731C20.7839 7.78395 20.8432 10.2727 19.3718 11.8911L11.9995 20.0001L4.62812 11.8911C3.15679 10.2727 3.21605 7.7839 4.76269 6.23726C6.48961 4.51034 9.33372 4.66814 10.8594 6.5752L12 8.00045L13.1396 6.57504C14.6653 4.66798 17.5104 4.51039 19.2373 6.23731Z" stroke="currentColor" stroke-width="1.5" stroke-linecap="round" stroke-linejoin="round"/>
    </symbol>
    <symbol id="cart" viewBox="0 0 24 24" xmlns="http://www.w3.org/2000/svg">
        <path d="M3 3H3.26835C3.74213 3 3.97943 3 4.17267 3.08548C4.34304 3.16084 4.48871 3.28218 4.59375 3.43604C4.71269 3.61026 4.75564 3.8429 4.84137 4.30727L7.00004 16L17.4218 16C17.875 16 18.1023 16 18.29 15.9199C18.4559 15.8492 18.5989 15.7346 18.7051 15.5889C18.8252 15.4242 18.8761 15.2037 18.9777 14.7631L18.9785 14.76L20.5477 7.95996L20.5481 7.95854C20.7023 7.29016 20.7796 6.95515 20.6947 6.69238C20.6202 6.46182 20.4635 6.26634 20.2556 6.14192C20.0184 6 19.6758 6 18.9887 6H5.5M18 21C17.4477 21 17 20.5523 17 20C17 19.4477 17.4477 19 18 19C18.5523 19 19 19.4477 19 20C19 20.5523 18.5523 21 18 21ZM8 21C7.44772 21 7 20.5523 7 20C7 19.4477 7.44772 19 8 19C8.55228 19 9 19.4477 9 20C9 20.5523 8.55228 21 8 21Z" stroke="currentColor" stroke-width="1.5" stroke-linecap="round" stroke-linejoin="round"/>
    </symbol>
    <symbol id="trash" viewBox="0 0 24 24" fill="none" xmlns="http://www.w3.org/2000/svg">
        <path id="Vector" d="M14 10V17M10 10V17M6 6V17.8C6 18.9201 6 19.4798 6.21799 19.9076C6.40973 20.2839 6.71547 20.5905 7.0918 20.7822C7.5192 21 8.07899 21 9.19691 21H14.8031C15.921 21 16.48 21 16.9074 20.7822C17.2837 20.5905 17.5905 20.2839 17.7822 19.9076C18 19.4802 18 18.921 18 17.8031V6M6 6H8M6 6H4M8 6H16M8 6C8 5.06812 8 4.60241 8.15224 4.23486C8.35523 3.74481 8.74432 3.35523 9.23438 3.15224C9.60192 3 10.0681 3 11 3H13C13.9319 3 14.3978 3 14.7654 3.15224C15.2554 3.35523 15.6447 3.74481 15.8477 4.23486C15.9999 4.6024 16 5.06812 16 6M16 6H18M18 6H20" stroke="currentColor" stroke-width="1.5" stroke-linecap="round" stroke-linejoin="round"/>
    </symbol>
    <!-- todo need change -->
    <symbol id="delivery" viewBox="0 0 120 120" fill="none" xmlns="http://www.w3.org/2000/svg">
        <path fill-rule="evenodd" clip-rule="evenodd" d="M110.189 111.989a.23.23 0 0 1-.178-.015.23.23 0 0 1-.115-.136.244.244 0 0 1-.01-.089.237.237 0 0 1 .083-.158.23.23 0 0 1 .08-.043c2.948-.931 5.374-2.965 7.033-5.549a15.572 15.572 0 0 0 2.282-6.082c.34-2.194.169-4.437-.499-6.556-.936-2.913-2.89-5.615-6.077-7.628-.712-.447-1.068-.648-1.117-.618-.018.01.178.25.468.746.336.574.305.894-.035 1.089-.278.16-.778.156-1.474.151-.831-.02-1.662.02-2.487.12 2.626 1.294 4.504 3.113 5.685 5.147a11.102 11.102 0 0 1 1.507 6.202 10.254 10.254 0 0 1-2.136 5.737c-1.304 1.671-3.183 2.977-5.591 3.632-1.476.402-3.909.336-6.321-.467-1.514-.505-3.028-1.301-4.303-2.455a9.598 9.598 0 0 1-2.839-4.613c-.66-2.384-.578-5.409.7-9.19a.23.23 0 0 1 .17-.151.236.236 0 0 1 .217.062c.957.864 1.692.604 2.879.177a.235.235 0 0 1 .266.074.23.23 0 0 1 .008.273c-1.13 1.61-1.793 3.192-2.061 4.68-.29 1.61-.115 3.11.433 4.413a7.444 7.444 0 0 0 2.67 3.241 9.328 9.328 0 0 0 3.695 1.476c3.763.667 6.453-.882 7.924-3.274.87-1.412 1.322-3.115 1.323-4.83.001-1.714-.445-3.438-1.371-4.89-1.626-2.56-4.745-4.278-9.521-3.632a87.357 87.357 0 0 1 1.894 3.354 65.203 65.203 0 0 1 1.771 3.582c1.22.217 1.959 1.011 2.251 1.954.258.85.165 1.768-.259 2.551-.49.892-1.415 1.533-2.73 1.454a2.947 2.947 0 0 1-1.447-.475c-.454-.3-.82-.714-1.06-1.2a3.084 3.084 0 0 1-.324-1.556c.029-.468.172-.923.417-1.324l-.129-.377c-1.078-3.14-1.519-4.422-4.603-8.317a.23.23 0 0 1 .12-.366 583.28 583.28 0 0 1 8.613-2.617 438.14 438.14 0 0 1 8.328-2.364c-3.569-4.37-7.559-6.555-10.916-6.936-1.521-.177-2.91.025-4.065.558a5.564 5.564 0 0 0-2.66 2.548c-.996 1.942-1.081 4.718.198 8.171a.23.23 0 0 1-.139.297c-3.67 1.332-4.39 2.643-5.713 5.053a77.38 77.38 0 0 1-.59 1.059c-.43.756-.824 1.223-1.12 1.396-.193.114-.37.128-.52.044-.15-.085-.228-.231-.258-.458-.057-.422.083-1.216.504-2.374.421-1.158.863-2.681 1.335-4.326 1.828-6.32 4.207-14.552 9.099-13.941C100.88 65.424 94.72 58.437 89 51.948c-.346-.391-.69-.781-1.021-1.16-4.832 3.156-3.597 7.472-1.901 13.395 1.78 6.208 4.05 14.144.55 24.364-.491 1.431-1.44 3.07-2.235 4.442-.781 1.35-1.405 2.425-1.28 2.604.083.119.712-.217 2.246-1.26.86-.588 1.524-.884 1.92-.923h.007c.234-.022.408.039.512.176.104.138.12.32.04.55-.141.412-.638 1.071-1.56 1.935-4.184 3.924-10.867 4.841-17.985 4.066-9.295-1.011-19.349-4.909-25.509-8.74-1.77-1.1-2.476-1.64-2.315-1.897.161-.258.98 0 2.342.416l.52.159c5.373 1.632 17.471 4.547 26.615 5.202 3.146.226 5.937.183 7.97-.27 1.959-.442 3.196-1.252 3.336-2.575a3.264 3.264 0 0 0-.16-1.305.23.23 0 0 1 .155-.289.24.24 0 0 1 .106-.007c1.115.147 1.959.154 2.404.015.137-.041.22-.088.245-.143.025-.055 0-.111-.067-.212-.206-.312-.75-.738-1.706-1.283a.23.23 0 0 1-.11-.255c3.304-13.208.925-20.025-.878-25.19-1.319-3.775-2.334-6.683-.674-10.537-.994.255-1.386-.005-1.58-.548a4.011 4.011 0 0 1-.158-.9c-.09-.854-.207-1.963-1.405-2.713a.232.232 0 0 1-.108-.21.229.229 0 0 1 .133-.193l3.147-1.484a.235.235 0 0 1 .064-.02c.89-.192 1.542-.141 1.996.076a1.384 1.384 0 0 1 .74.846c.108.387.111.795.008 1.184-.15.646-.52 1.355-1.044 1.987 1.609-.601 2.986-1.174 4.006-1.782-.69-.297-1.471-.87-2.324-1.79a6.71 6.71 0 0 1-1.367-2.324 11.951 11.951 0 0 1-.604-2.825c-1.1.106-1.928.53-2.92 1.043l-.315.162a.234.234 0 0 1-.335-.16c-1.11-4.252-3.02-7.134-3.926-8.498-.317-.479-.519-.782-.543-.95-.415-2.996-.99-4.515-1.586-5.074-.237-.222-.472-.265-.695-.184-.26.099-.521.353-.766.719-.813 1.204-1.37 3.443-1.167 4.939.117.861.437 1.62.872 2.088.191.22.447.375.732.442.287.048.582-.018.82-.184.484-.305.99-.957 1.47-2.068a.231.231 0 0 1 .206-.14.234.234 0 0 1 .216.124c.523.998.98 1.744 1.371 2.383 1.103 1.806 1.717 2.811 1.715 5.706a.23.23 0 0 1-.068.163.233.233 0 0 1-.297.026c-1.556-1.046-3.336-1.429-5.126-1.815-1.87-.403-3.76-.809-5.463-1.974-1.546-1.06-2.476-1.346-3.255-1.59-.882-.272-1.58-.49-2.701-1.588-.5-.494-1.12-.743-1.723-.986-.534-.216-1.062-.428-1.514-.804-.801-.663-1.106-1.31-1.424-1.975-.47-.994-.958-2.03-3.373-3.195a.233.233 0 0 1-.128-.168 9.275 9.275 0 0 0-.386-1.47 6.39 6.39 0 0 0-.705-1.34.23.23 0 0 1 .119-.345l.248-.089c1.246-.465 2.278-.852 2.144-2.225-1.111-.666-1.71-1.102-1.944-1.366-.233-.264-.227-.47-.012-.604.117-.073.32-.088.58-.046.646.095 1.84.486 2.938.919.702.13 2.199-.943 3.13-2.035.23-.262.43-.549.592-.856.123-.247.185-.467.162-.636-.023-.17-.139-.28-.38-.344a.234.234 0 0 1-.171-.26c.052-.567.109-1.105.165-1.644.16-1.523.323-3.062.304-4.563-.022-1.757-.37-3.321-.965-4.672a9.776 9.776 0 0 0-3.795-4.404 10.04 10.04 0 0 0-5.431-1.496c-1.14.012-2.27.209-3.346.583 3.656.835 6.216 2.874 8.147 5.592 2.048 2.883 3.383 6.524 4.575 10.292a.23.23 0 0 1-.153.288.227.227 0 0 1-.126 0c-2.661-.66-4.849-1.39-6.654-2.366-1.728-.934-3.101-2.092-4.198-3.624-.545.541-1.13.647-1.652.492-.523-.154-.966-.573-1.24-1.078-.273-.505-.378-1.106-.213-1.615.165-.51.582-.92 1.344-1.065a22.706 22.706 0 0 1-.914-2.808 34.234 34.234 0 0 1-.659-3.19c-2.324 1.777-3.472 3.203-3.93 4.888-.478 1.744-.235 3.803.193 6.829.563.217 1.105.418 1.648.618 2.284.843 4.593 1.696 6.581 3.028 1.354.906 2.084 1.455 2.363 1.738.603.612.42.765-.315.588a8.503 8.503 0 0 1-1.24-.481c-1.835-.824-4.932-2.467-6.138-3.192l-.077 1.25a.23.23 0 0 1-.247.217c-1.017-.056-1.846-.018-2.53.245-.441.17-.834.446-1.14.804 2.006-.89 4.025-.487 5.838.578 1.898 1.114 3.57 2.958 4.757 4.786.267.406.506.816.723 1.218.565 1.053.955 2.85 1.046 4.608.077 1.51-.065 3.002-.504 3.986.918.554 1.309 1.379 1.742 2.295.081.172.164.347.257.53 1.176.315 1.386.7 1.847 1.542.054.1.112.206.173.313.762.089 1.365.2 1.911.442.547.242 1.05.618 1.574 1.223.156.01.317.015.49.022 1.437.055 3.523.136 4.07 1.566l.089-.011c.703-.088 2.113-.254 2.643.103.237.16.337.383.222.69l2.825.618c1.822-1.643 3.817-1.346 5.87-1.04.355.053.721.107 1.078.15 1.18.14 2.111.8 2.526 1.437.126.182.21.39.246.607v.008a.767.767 0 0 1-.14.578c-.151.202-.418.334-.815.354.029.353.07.945-.037 1.456-.071.343-.198.65-.35.835a.598.598 0 0 1-.307.208.448.448 0 0 1-.396-.089c-.122-.093-.239-.264-.34-.523l-.02-.056a.188.188 0 0 1-.011-.038.402.402 0 0 1-.029.075l-.01.017-.027.06c-.216.44-.471.734-.781.76-.251.02-.5-.13-.745-.51a1.648 1.648 0 0 1-.962.575.236.236 0 0 1-.233-.103l-.986-1.5a.23.23 0 0 1 .122-.357.235.235 0 0 1 .145.004l1.829.656.027-.059c.11-.245.168-.51.171-.778a1.443 1.443 0 0 0-.178-.73c-.204-.353-.606-.632-1.265-.706a1.702 1.702 0 0 0-1.234.366 1.528 1.528 0 0 0-.356.411 1.318 1.318 0 0 0-.178.52c-.048.417.094.91.527 1.44a.23.23 0 0 1-.073.35.235.235 0 0 1-.132.025l-1.898-.21c-.743.696-1.182.755-1.484.45-.25-.254-.325-.758-.411-1.338l-.028-.186c-.028-.176-.06-.412-.089-.639-.09-.674-.178-1.278-.178-1.279-.02 0-.15.558-.49 2.18-.178.866-.73 1.396-1.283 1.575a1.323 1.323 0 0 1-.637.05 1.01 1.01 0 0 1-.554-.287c-.295-.303-.423-.823-.204-1.556.48-1.608.614-2.494.56-2.88 0-.032.081-.088.047-.072-.1.047-.244.219-.401.471-.502.806-1.022 2.315-.759 3.415a.23.23 0 0 1-.277.279c-1.91-.325-3.697-.658-5.475-1.06a65.99 65.99 0 0 1-5.26-1.4c-1.078 1.173-.966 3.201-.871 4.943.02.353.038.698.046 1.028 1.148-.038 2.501-.132 3.963-.234 5.663-.372 12.946-.883 17.197 1.323 1.166.604 1.733 2.153 1.934 3.927.281 2.479-.147 5.429-.644 6.764-2.064 5.55-1.897 7.334-1.616 10.342.077.82.162 1.73.214 2.825.042.888-.1 1.556-.242 2.222-.193.9-.384 1.798-.077 3.244a.23.23 0 0 1-.178.273.236.236 0 0 1-.065 0c-.46-.025-.749.015-.908.1a.17.17 0 0 0-.109.148.74.74 0 0 0 .144.361c.284.441.885.957 1.355 1.274a31.88 31.88 0 0 1 3.45 2.653c.466.404.928.803 1.503 1.248 1.109.859 1.7 1.423 1.91 1.742.16.243.156.428.016.555-.108.098-.288.115-.523.059-.454-.109-1.287-.508-2.244-1.097-.897-.552-1.918-1.283-2.893-1.981-1.54-1.105-2.966-2.125-3.542-2.192a.233.233 0 0 1-.207-.217c-.141-1.355-.312-2.755-.48-4.156-.268-2.207-.535-4.414-.713-6.603-.155-1.942.504-4.518 1.198-7.238 1.209-4.727 2.528-9.887-.235-12.563-.91-.883-3.707-1.342-7.171-1.55-5.253-.319-12.007-.046-16.14.194l-1.184.073c-1.113.072-1.523.098-1.481-.245.018-.154.178-.246.439-.394.544-.31 1.671-.953 2.298-2.159a9.756 9.756 0 0 0 .7-1.622c.06-.188.089-.28.3-.233l.017.004c.169.041.171.13.169.297 0 .2-.013.82.267 1.818.14.506.327.832.534.978a.334.334 0 0 0 .29.065.773.773 0 0 0 .373-.287c.384-.482.722-1.464.871-2.96.058-.588.156-1.171.293-1.746.13-.542.288-1.077.475-1.603l-2.812-1.137c.089.917-.03 1.687-.31 2.327-.488 1.113-1.46 1.814-2.705 2.184-1.212.36-2.689.405-4.228.208-2.902-.372-6.041-1.602-8.042-3.178-.772-.608-1.013-.978-.84-1.195.229-.285 1.293.042 2.798.506 3.35 1.033 9.063 2.793 10.84.687 1.659-1.965-.701-4.114-3.45-6.615-2.659-2.422-5.665-5.16-5.936-8.493-.21-2.574.114-4.354.801-5.685a6.306 6.306 0 0 1 1.235-1.645c-.45.33-.865.704-1.24 1.115-1.372 1.483-2.419 3.506-2.861 5.272l-.202.794c-.867 3.398-2.28 8.935-1.016 11.715a.23.23 0 0 1-.09.29c-.54.373-1.016.725-1.43 1.06a333.883 333.883 0 0 0-.036 4.004c4.865.342 6.538.9 6.507 1.353-.031.452-1.924.805-4.007.677a13.847 13.847 0 0 1-2.504-.37c0 1.214.01 2.215.018 2.897a.228.228 0 0 1-.107.2.235.235 0 0 1-.176.032c-.763-.167-1.388-.312-1.97-.447l-.478-.111c.011.25.036.498.076.745.16 1.012.562 2.016 1.224 2.808.405.492.917.887 1.497 1.157.127-.146.265-.282.414-.406.729-.61 1.853-1.108 3.473-1.433 2.849-.572 4.504-.773 5.253-.723.48.032.696.188.683.442-.01.191-.205.401-.556.618-.81.505-2.612 1.235-4.846 1.957-1.726.56-3.141.524-4.268.108-.247.37-.381.802-.386 1.245-.01.7.267 1.456.731 2.207.276.435.589.846.936 1.229 7.033 2.978 17.504 6.43 30.538-1.23a4.555 4.555 0 0 1 1.45-1.88c1.328-1.029 2.357-1.602 2.896-1.766.291-.088.502-.066.615.058.127.143.105.354-.09.618-.305.413-1.146 1.14-2.658 2.141-.614.406-1.223.789-1.827 1.148-.534 1.317-.748 3.187-1.069 6.032l-.163 1.426c-.672 5.723-.344 7.716-.1 9.212.172 1.042.305 1.853.054 3.455-.074.422-.175.84-.302 1.25-.235.811-.446 1.555-.116 2.213 3.177.76 4.82 1.282 5.477 1.61.644.32.667.578.267.77-.178.088-.555.11-1.046.082-1.266-.069-3.408-.469-4.591-1.043.01 1.291-.377 2.217-.668 2.914-.133.318-.245.587-.279.794-.084.535.43.835 2.816 1.208.633.1 1.52.258 2.529.441 3.69.664 9.068 1.631 9.325 1.085.088-.198-.818-.77-3.338-1.929-1.185-.545-2.395-1.895-2.906-2.764-.164-.28-.267-.523-.275-.694-.022-.338.137-.494.521-.386.277.077.77.4 1.536 1.077a7.49 7.49 0 0 0 1.734 1.191c.567.276 1.158.467 1.87.684 1.857.566 2.834 1.203 3.22 1.823a1.23 1.23 0 0 1 .142 1.101c-.116.333-.368.635-.704.895-.856.659-2.303 1.071-3.393.982-5.698-.466-10.411-1.006-13.103-2.96-2.736-1.988-3.373-5.374-.815-11.493.284-.68.267-1.236.082-1.614a.975.975 0 0 0-.369-.406.964.964 0 0 0-.523-.132c-.391.013-.836.237-1.232.728-1.335 1.651-1.902 3.076-2.016 4.628-.116 1.568.228 3.282.718 5.49a.23.23 0 0 1-.089.245.234.234 0 0 1-.263.006l-7.255-4.691a.231.231 0 0 1-.068-.349c.766-.927 1.703-2.216 2.712-3.608.943-1.299 1.95-2.685 2.939-3.95-4.346.51-9.739.51-14.02-.562-3.761-.94-6.678-2.71-7.336-5.69a.23.23 0 0 1 .178-.274.23.23 0 0 1 .117.005c.802.177 1.474.329 2.067.463 2.143.484 3.231.73 3.234.72.017-.058-1.024-.753-3.139-2.164l-.828-.554c-4.744-1.826-8.734-3.668-10.691-5.085-1.685.116-2.822.859-3.561 1.892-.802 1.114-1.14 2.571-1.205 3.957-.005.122-.009.244-.01.366l2.774-1.307c-.403-1.005-.54-1.74-.479-2.262.074-.628.416-.97.93-1.096.46-.116 1.057-.045 1.715.138 1.854.519 4.258 1.957 5.278 2.601a.23.23 0 0 1 .105.23.228.228 0 0 1-.171.187c-8.219 2.156-14.19 6.037-16.777 8.461-.623.582-1.04 1.074-1.242 1.43-.114.201-.154.32-.106.332.178.04.548-.056 1.128-.318 2.37-1.07 6.486-2.226 10.116-2.327 1.564-.043 3.042.109 4.258.546 1.246.447 2.218 1.192 2.74 2.328.264.593.404 1.234.412 1.883a3.443 3.443 0 0 1-.298 1.589c6.173.86 12.349 1.78 18.527 2.76a.233.233 0 0 1 .212.192.229.229 0 0 1-.137.25c-12.19 5.84-13.665 5.296-27.177.304a920.04 920.04 0 0 0-2.267-.836c-1.203-.441-2.002-.794-2.35-1.039-.206-.144-.3-.291-.277-.441.027-.17.173-.272.445-.301.378-.042 1.167.03 2.404.234 2.133.353 4.824.706 6.955.44 1.21-.153 2.238-.514 2.861-1.205-6.011-.84-12.015-1.634-18.011-2.385.356.725.691 1.23 1.135 1.582.513.409 1.187.63 2.21.778a.233.233 0 0 1 .194.173.23.23 0 0 1 .003.091.22.22 0 0 1-.047.11 29.99 29.99 0 0 1-.585.718c.44-.08.875-.19 1.301-.326a.234.234 0 0 1 .258.088.229.229 0 0 1-.005.271c-.534.706-1.147 1.412-1.767 2.131-1.036 1.2-2.094 2.426-2.835 3.682-2.993 5.068-2.048 10.346.85 14.14a14.147 14.147 0 0 0 5.293 4.255c2.064.95 4.353 1.371 6.648 1.078 4.58-.585 9.195-4.023 12.116-11.796-.863.675-1.643 1.053-2.344 1.393-.98.477-1.804.875-2.456 1.956-1.65 2.736-3.834 4.436-6.133 5.201a9.193 9.193 0 0 1-5.342.158 9.592 9.592 0 0 1-4.605-2.869c-1.759-1.954-2.929-4.756-3.014-8.273a14.16 14.16 0 0 1 .34-3.443 12.08 12.08 0 0 1 1.137-3.09c.731-1.34 2.505-2.688 3.774-3.158.46-.17.87-.232 1.166-.144.361.106.557.385.505.883-.078.722-.769 2.02-2.46 4.102a9.331 9.331 0 0 0-1.294 9.552 7.915 7.915 0 0 0 2.28 3.008c1.253 1 2.87 1.621 4.808 1.641 2.183.023 3.867-.583 5.126-1.665 1.382-1.189 2.263-2.96 2.736-5.11a.228.228 0 0 1 .154-.169c4.343-1.727 5.755-2.533 5.64-2.813-.113-.281-1.907-.123-3.765.166-1.776.275-3.587.68-4.153.91.43.827.279 1.365-.277 1.689-1.73 1.005-8.089-.72-11.414-1.624l-.568-.153a.233.233 0 0 1-.16-.149c-1.255-2.76 2.216-4.822 4.575-6.222.391-.233.75-.442 1.06-.647a.239.239 0 0 1 .193-.029l19.74 4.414a.232.232 0 0 1 .178.276.232.232 0 0 1-.109.148c-1.965 1.154-2.829 2.608-2.9 3.947a3.382 3.382 0 0 0 .376 1.74 3.746 3.746 0 0 0 1.205 1.354c1.144.784 2.806 1.059 4.671.376-1.953-3.691-2.415-5.316-1.663-5.71.712-.376 2.46.54 5.038 1.89 7.961 4.179 24.11 12.652 39.235.11a.234.234 0 0 1 .368.098c.313.786.547 1.075.754 1.059.22-.016.5-.353.832-.803.516-.697.859-1.236 1.082-1.59.267-.419.403-.637.617-.579.237.065.214.353.167.951-.031.402-.077.98-.105 1.73-.122 3.274 1.023 6.34 2.939 8.839 2.04 2.666 4.954 4.684 8.137 5.616a.229.229 0 0 1 .136.28.227.227 0 0 1-.102.131c-.05.03-.109.041-.165.03-3.277-.959-6.276-3.037-8.377-5.78-1.974-2.58-3.155-5.749-3.027-9.134.029-.767.071-1.324.102-1.72-.227.358-.556.866-1.023 1.5-.406.55-.765.961-1.176.991-.382.029-.738-.264-1.1-1.068-15.293 12.447-31.497 3.952-39.507-.25-2.447-1.284-4.106-2.154-4.603-1.892-.475.248.078 1.752 1.974 5.305l.016.032a.227.227 0 0 1-.053.251.23.23 0 0 1-.076.049c-2.123.86-4.04.569-5.35-.332a4.192 4.192 0 0 1-1.36-1.525 3.83 3.83 0 0 1-.428-1.97c.072-1.365.869-2.825 2.648-4.02l-19.113-4.279c-.282.177-.623.384-.992.603-2.191 1.3-5.402 3.207-4.425 5.56l.46.126c3.26.883 9.495 2.579 11.057 1.671.342-.2.394-.583.02-1.221l-.01-.016c-.088-.157-.037-.288.15-.396.412-.239 2.458-.718 4.434-1.024 2.047-.318 4.049-.428 4.273.119.21.52-1.215 1.543-5.798 3.37-.501 2.192-1.424 4.005-2.861 5.242-1.344 1.154-3.129 1.801-5.431 1.778-2.055-.022-3.77-.682-5.099-1.744a8.359 8.359 0 0 1-2.416-3.178 9.795 9.795 0 0 1 1.358-10.026c1.623-2.011 2.285-3.227 2.354-3.865.024-.23-.044-.353-.178-.392-.195-.056-.503 0-.872.134-1.187.442-2.849 1.697-3.525 2.945a11.49 11.49 0 0 0-1.088 2.963 13.714 13.714 0 0 0-.33 3.336c.082 3.4 1.206 6.1 2.895 7.976a9.129 9.129 0 0 0 4.38 2.732 8.743 8.743 0 0 0 5.075-.15c2.2-.733 4.293-2.364 5.882-5.001.722-1.197 1.603-1.624 2.651-2.133.848-.41 1.814-.883 2.897-1.886a.235.235 0 0 1 .389.08.23.23 0 0 1 .001.154c-2.967 8.551-7.895 12.3-12.797 12.926-2.386.305-4.762-.132-6.9-1.116a14.627 14.627 0 0 1-5.472-4.395c-2.998-3.931-3.98-9.4-.879-14.654.765-1.294 1.834-2.534 2.884-3.75.45-.521.897-1.038 1.313-1.553a6.1 6.1 0 0 1-1.184.205c-2.048 2.361-3.801 3.737-5.477 5.052l-.468.367c-.72 1.367-1.374 2.518-2.168 3.562-1.318 1.733-2.92 3.163-3.856 3.726-.365.22-.661.319-.847.271-.292-.076-.366-.332-.146-.799.302-.64 1.276-1.918 3.262-4.03 1.151-1.224 2.258-2.136 3.39-3.03.198-.378.404-.773.616-1.186.786-1.514 1.701-3.283 2.957-5.411a.233.233 0 0 1 .368-.044c.662.672 1.24.978 1.863 1.048.095.011.191.017.287.017.206-.24.416-.492.628-.754-.89-.161-1.525-.402-2.038-.81-.583-.465-.993-1.132-1.445-2.13a.236.236 0 0 1 .01-.208.232.232 0 0 1 .232-.114 1583.41 1583.41 0 0 1 18.68 2.462c.232-.409.356-.905.336-1.506a4.332 4.332 0 0 0-.37-1.704c-.464-1.01-1.345-1.677-2.476-2.085-1.157-.417-2.582-.561-4.086-.519-3.562.099-7.608 1.236-9.936 2.285-.678.307-1.15.41-1.424.348-.445-.101-.508-.46-.198-1.008.223-.394.671-.923 1.329-1.54 2.57-2.404 8.422-6.226 16.465-8.425-1.149-.7-3.139-1.827-4.706-2.265-.584-.163-1.1-.23-1.475-.135-.319.08-.534.296-.58.7-.057.482.095 1.204.53 2.236a.228.228 0 0 1-.117.297l-3.304 1.551a.234.234 0 0 1-.312-.117.23.23 0 0 1-.019-.088c-.005-.249 0-.501.01-.754.068-1.463.434-3.009 1.29-4.204.745-1.044 1.856-1.817 3.452-2.038-.368-.382-.544-.783-.567-1.17a1.55 1.55 0 0 1 .276-.97 2.32 2.32 0 0 1 .81-.717c.775-.43 1.887-.572 3.011-.177.98.348 2.098.834 3.343 1.378l.916.4a8.281 8.281 0 0 1-.404-.59c-.51-.82-.81-1.657-.801-2.451a2.73 2.73 0 0 1 .411-1.424 4.792 4.792 0 0 1-1.573-1.245c-.712-.858-1.15-1.942-1.325-3.031a7.094 7.094 0 0 1-.089-.923c-2.966-.676-4.947-.981-8.719-.208a.24.24 0 0 1-.067 0c-6.427-.562-6.16-11.878-5.35-20.879.131-1.469.274-2.839.404-4.093.072-.707.141-1.373.198-1.947.482-4.89 5.348-5.633 10.97-5.088 2.945.285 6.096.923 8.918 1.494.801.163 1.58.32 2.315.462a6.4 6.4 0 0 1 3.582-.837c1.413.088 2.817.647 4.089 1.625 1.87 1.438 3.452 3.786 4.356 6.895.599 2.057.645 2.89.356 2.973a.235.235 0 0 1-.267-.108c-.534-.458-1.458-2.238-2.303-3.874-.52-1.005-1.009-1.953-1.327-2.477-.84-1.385-1.714-2.273-2.589-2.771a3.593 3.593 0 0 0-2.517-.442c-1.176.712-2.162 1.528-2.804 2.764-.652 1.256-.957 2.956-.754 5.437.255 3.152 3.191 5.827 5.787 8.189 2.924 2.662 5.43 4.949 3.492 7.252-1.977 2.342-7.875.523-11.334-.542-1.329-.41-2.267-.699-2.297-.66-.018.022.247.138.764.545 1.94 1.526 4.986 2.72 7.81 3.082 1.477.189 2.889.148 4.038-.194 1.117-.332 1.983-.95 2.41-1.925.285-.65.38-1.466.228-2.472a.23.23 0 0 1 .197-.265.237.237 0 0 1 .121.014l3.383 1.37a.233.233 0 0 1 .132.292 15.446 15.446 0 0 0-.54 1.761 12.474 12.474 0 0 0-.284 1.685c-.158 1.59-.535 2.656-.969 3.2a1.22 1.22 0 0 1-.618.448.79.79 0 0 1-.684-.137c-.285-.206-.534-.618-.706-1.236a8.394 8.394 0 0 1-.208-.956c-.099.222-.224.482-.38.782-.689 1.324-1.897 2.014-2.48 2.347-.133.076-.198-.026-.207.049-.026.208.285-.225.988-.27.313-.02.696-.045 1.189-.073 4.144-.241 10.915-.515 16.191-.196 3.567.216 6.468.707 7.47 1.678 2.955 2.864 1.602 8.157.363 13.006-.685 2.68-1.336 5.221-1.186 7.087.178 2.178.445 4.382.712 6.585.16 1.324.321 2.653.465 4.008.751.215 2.112 1.19 3.574 2.236.963.69 1.972 1.413 2.867 1.964.868.534 1.614.902 2.038 1.023-.24-.299-.784-.795-1.73-1.527a34.679 34.679 0 0 1-1.523-1.262 31.655 31.655 0 0 0-3.406-2.62c-.51-.345-1.167-.907-1.487-1.408a1.156 1.156 0 0 1-.214-.61.597.597 0 0 1 .356-.554c.188-.1.467-.158.86-.16-.246-1.376-.057-2.262.133-3.15.136-.638.272-1.278.233-2.105-.051-1.09-.136-1.99-.212-2.802-.287-3.075-.458-4.897 1.642-10.543.48-1.288.89-4.144.618-6.553-.185-1.635-.682-3.05-1.685-3.57-4.13-2.14-11.342-1.637-16.945-1.246-1.556.108-2.988.208-4.216.241a.236.236 0 0 1-.165-.067.23.23 0 0 1-.068-.163c0-.376-.027-.8-.051-1.242-.103-1.876-.223-4.072 1.091-5.377a.232.232 0 0 1 .248-.07 65.89 65.89 0 0 0 5.359 1.434c1.661.373 3.344.69 5.138.997-.135-1.18.377-2.627.875-3.427.202-.325.415-.559.597-.645.317-.151.547-.04.613.424.063.442-.074 1.396-.574 3.073-.164.551-.09.916.089 1.107a.552.552 0 0 0 .3.155.86.86 0 0 0 .412-.037c.414-.134.83-.547.973-1.228.409-1.958.737-2.602 1.038-2.54.324.067.428.824.544 1.67.026.193.054.39.09.632l.028.187c.075.501.14.936.284 1.083.108.11.356-.005.898-.53a.235.235 0 0 1 .196-.071l1.496.165c-.284-.482-.375-.941-.327-1.353.029-.246.108-.484.234-.698a1.98 1.98 0 0 1 .468-.537 2.176 2.176 0 0 1 1.581-.468c.827.095 1.342.461 1.616.939.164.293.247.624.24.96a2.44 2.44 0 0 1-.29 1.126c.177.343.311.483.414.474.12-.01.256-.201.4-.499l.028-.058.008-.018c.17-.353.255-.53.445-.545.23-.018.302.165.445.53l.026.066c.035.12.1.23.187.32 0 0-.01.01 0 .009a.179.179 0 0 0 .063-.057 1.54 1.54 0 0 0 .255-.634c.098-.47.05-1.059.024-1.38a3.429 3.429 0 0 1-.014-.195v-.031a.233.233 0 0 1 .245-.217c.37.02.589-.05.681-.177a.33.33 0 0 0 .05-.243v-.006a1.054 1.054 0 0 0-.178-.417c-.356-.542-1.157-1.106-2.19-1.23a37.99 37.99 0 0 1-1.094-.151c-1.972-.294-3.89-.58-5.57 1.001a.233.233 0 0 1-.21.057l-3.243-.706a.233.233 0 0 1-.18-.249.23.23 0 0 1 .037-.104c.129-.186.13-.29.06-.337-.387-.26-1.683-.104-2.33-.027a9.801 9.801 0 0 1-.28.031.234.234 0 0 1-.254-.17c-.34-1.285-2.34-1.361-3.7-1.413a17.732 17.732 0 0 1-.6-.028.234.234 0 0 1-.164-.082c-.5-.592-.955-.948-1.47-1.173-.514-.225-1.119-.332-1.893-.416a.235.235 0 0 1-.178-.116c-.09-.161-.168-.299-.237-.425-.406-.742-.584-1.069-1.654-1.34a.238.238 0 0 1-.15-.12c-.106-.207-.21-.425-.31-.64-.427-.901-.81-1.707-1.723-2.186l-.011-.005a.233.233 0 0 1-.098-.313c.475-.896.629-2.405.548-3.949-.089-1.697-.456-3.42-.99-4.414a17.589 17.589 0 0 0-.704-1.186c-1.157-1.775-2.772-3.563-4.602-4.637-1.8-1.06-3.804-1.42-5.768-.383-.143.075-.288.16-.436.254a.234.234 0 0 1-.29-.018.23.23 0 0 1-.047-.283c.519-.938 1.14-1.483 1.912-1.78.703-.271 1.52-.328 2.493-.288l.089-1.412a.232.232 0 0 1 .25-.216c.04.003.08.017.114.04.793.536 4.375 2.453 6.405 3.365.21.095.403.177.572.247a35.17 35.17 0 0 0-1.832-1.287c-1.946-1.304-4.226-2.146-6.481-2.979-.61-.226-1.218-.45-1.78-.67a.232.232 0 0 1-.147-.183c-.445-3.158-.712-5.296-.202-7.15s1.78-3.407 4.396-5.358a.233.233 0 0 1 .386.137c.176 1.189.414 2.367.712 3.531a21.71 21.71 0 0 0 1.002 3.009.226.226 0 0 1-.031.25.236.236 0 0 1-.159.082c-.737.063-1.118.384-1.246.787-.125.385-.038.851.178 1.255.216.403.566.738.962.855.415.123.897 0 1.354-.559a.232.232 0 0 1 .192-.096.234.234 0 0 1 .19.103c1.08 1.59 2.452 2.775 4.204 3.721 1.672.904 3.695 1.595 6.143 2.221-1.147-3.588-2.443-7.036-4.386-9.769-1.998-2.81-4.687-4.87-8.623-5.561a.234.234 0 0 1-.193-.201.23.23 0 0 1 .14-.24A11.039 11.039 0 0 1 48.744 1a10.5 10.5 0 0 1 5.68 1.567 10.234 10.234 0 0 1 3.97 4.631c.624 1.405.98 3.029 1.004 4.855.02 1.534-.144 3.083-.305 4.616-.054.502-.106 1.002-.15 1.474a.82.82 0 0 1 .533.666c.037.265-.042.577-.206.903-.18.34-.4.659-.654.948-1.025 1.202-2.742 2.368-3.597 2.187a.197.197 0 0 1-.037-.012c-1.074-.423-2.24-.808-2.857-.898l-.046-.007c.267.248.845.643 1.824 1.226a.23.23 0 0 1 .115.168c.248 1.82-.947 2.276-2.414 2.825.238.377.438.776.595 1.192.17.47.301.954.393 1.446 2.472 1.215 2.99 2.311 3.486 3.363.292.618.576 1.221 1.297 1.816.397.328.89.53 1.396.731.646.265 1.307.53 1.876 1.087 1.04 1.024 1.692 1.225 2.512 1.48.808.25 1.775.55 3.383 1.648 1.625 1.113 3.467 1.509 5.298 1.903 1.697.365 3.383.729 4.922 1.653-.057-2.446-.639-3.4-1.642-5.043-.344-.564-.737-1.205-1.166-1.996-.466.949-.963 1.538-1.451 1.845a1.57 1.57 0 0 1-1.157.247 1.84 1.84 0 0 1-.98-.586c-.5-.536-.864-1.387-.993-2.34-.216-1.588.377-3.976 1.242-5.257.297-.442.632-.76.987-.894.393-.149.794-.08 1.179.28.668.624 1.297 2.234 1.729 5.348.009.065.188.335.469.758.9 1.356 2.78 4.19 3.918 8.37l.056-.03c1.103-.568 2.01-1.035 3.317-1.11h.01a.236.236 0 0 1 .17.053.23.23 0 0 1 .082.157c.097 1.093.29 2.076.599 2.934.27.797.7 1.531 1.262 2.16.946 1.021 1.774 1.58 2.462 1.794.611-.426 1.041-.873 1.247-1.363.603-1.436-.734-3.328-5.113-6.268a.231.231 0 0 1-.095-.248l1.407-5.45a1.362 1.362 0 0 1-.365.176c-.267.076-.477.01-.63-.17l-.013-.016a1.203 1.203 0 0 1-.21-.618c-.07-.663.098-1.733.361-2.86.565-2.415 1.094-3.634 1.556-4.093.34-.337.661-.343.955-.124.233.177.428.508.582.929.456 1.236.624 3.326.391 3.96-.323.89-.553 1.067-.763 1.23-.349.264-.628.484-1.593 6.695 2.953.8 4.49 2.9 4.928 4.829.216.954.163 1.873-.12 2.581-.297.743-.845 1.258-1.602 1.363a2.306 2.306 0 0 1-.84-.05c-1.273.836-3.152 1.578-5.37 2.384a.237.237 0 0 1-.267-.064.23.23 0 0 1 .026-.326c.84-.706 1.444-1.66 1.636-2.49a1.79 1.79 0 0 0 0-.94.922.922 0 0 0-.499-.57c-.362-.176-.91-.21-1.68-.044l-2.767 1.304c1.078.848 1.194 1.953 1.285 2.825.016.269.061.535.135.794.126.353.465.472 1.488.111a.234.234 0 0 1 .307.185.23.23 0 0 1-.02.132c-1.87 3.922-.857 6.835.478 10.661 1.816 5.198 4.208 12.054.933 25.283.93.544 1.481.992 1.713 1.343.16.245.188.463.1.655-.088.193-.267.311-.534.393-.463.142-1.246.155-2.265.042.094.375.124.763.089 1.147-.164 1.556-1.536 2.496-3.697 2.978-2.084.466-4.919.51-8.102.281-9.18-.657-21.325-3.584-26.717-5.222l-.522-.159c-1.148-.353-1.78-.658-1.81-.61-.031.047.673.332 2.166 1.261 6.111 3.803 16.088 7.67 25.312 8.673 6.994.761 13.547-.125 17.617-3.942.86-.808 1.317-1.4 1.437-1.748a.312.312 0 0 0 .03-.124.477.477 0 0 0-.097 0h-.005c-.325.032-.91.303-1.7.843-1.808 1.236-2.641 1.507-2.894 1.143-.29-.418.397-1.606 1.26-3.096.783-1.351 1.718-2.965 2.195-4.36 3.455-10.085 1.204-17.945-.556-24.092-1.77-6.18-3.054-10.668 2.266-14.018a.236.236 0 0 1 .301.044c.388.441.77.876 1.158 1.31 5.84 6.621 12.132 13.761 10.548 22.881a.235.235 0 0 1-.267.186c-4.637-.834-6.998 7.333-8.803 13.579-.474 1.64-.911 3.149-1.348 4.353-.395 1.083-.534 1.799-.481 2.156 0 .04.01.08.027.118.004 0 .013-.016.053-.039.233-.137.565-.544.952-1.225.204-.359.4-.717.587-1.054 1.351-2.461 2.099-3.823 5.743-5.186-1.246-3.486-1.127-6.316-.097-8.324a6.02 6.02 0 0 1 2.868-2.76c1.233-.568 2.706-.78 4.313-.598 3.535.402 7.735 2.723 11.442 7.375a.23.23 0 0 1-.116.372 401.333 401.333 0 0 0-8.659 2.455 514.635 514.635 0 0 0-8.29 2.517c2.945 3.753 3.397 5.07 4.469 8.192l.165.48a.23.23 0 0 1-.026.201 2.434 2.434 0 0 0-.403 1.2c-.025.457.07.913.276 1.323.204.413.515.764.9 1.019.363.238.783.375 1.218.399 1.107.066 1.884-.469 2.294-1.213a2.873 2.873 0 0 0 .222-2.196c-.253-.816-.908-1.501-1.999-1.652a.232.232 0 0 1-.178-.135 62.157 62.157 0 0 0-1.81-3.67 87.846 87.846 0 0 0-2.059-3.63.264.264 0 0 1-.029-.082.229.229 0 0 1 .194-.264c5.186-.81 8.57 1.03 10.328 3.795.972 1.53 1.443 3.34 1.441 5.138-.001 1.798-.476 3.587-1.39 5.07-1.569 2.543-4.423 4.195-8.405 3.489a9.815 9.815 0 0 1-3.88-1.552 7.905 7.905 0 0 1-2.837-3.442c-.581-1.384-.767-2.97-.462-4.671.248-1.372.815-2.816 1.752-4.286-.904.29-1.594.363-2.437-.279-1.145 3.537-1.205 6.365-.586 8.6a9.146 9.146 0 0 0 2.704 4.394c1.218 1.107 2.67 1.872 4.136 2.357 2.324.774 4.65.843 6.054.46 2.304-.626 4.096-1.874 5.342-3.468a9.798 9.798 0 0 0 2.038-5.486 10.64 10.64 0 0 0-1.446-5.947c-1.233-2.124-3.263-4.007-6.151-5.27a.23.23 0 0 1-.082-.37.232.232 0 0 1 .128-.071c1.32-.265 2.467-.253 3.312-.247.623 0 1.068.007 1.239-.089.067-.038.034-.17-.134-.457-.446-.764-.587-1.22-.291-1.382.226-.123.726.088 1.592.635 3.287 2.076 5.303 4.87 6.27 7.878.69 2.185.867 4.498.517 6.761a16.041 16.041 0 0 1-2.351 6.263c-1.717 2.671-4.23 4.774-7.287 5.737l.002.002ZM88.532 47.973c-.196.465-.556.89-1.054 1.29.078.001.156-.003.234-.014.576-.079.999-.487 1.234-1.076.25-.624.294-1.446.098-2.31-.415-1.828-1.903-3.822-4.78-4.532a.233.233 0 0 1-.186-.265c1.018-6.595 1.365-6.862 1.8-7.197.159-.123.334-.259.61-1.019.206-.566.038-2.489-.39-3.646-.126-.342-.267-.605-.424-.719-.093-.07-.208-.055-.346.082-.408.404-.89 1.55-1.431 3.87-.254 1.084-.416 2.102-.357 2.71.004.132.04.262.108.377l.007.008c.029.034.076.044.146.023.171-.047.408-.214.724-.525a.234.234 0 0 1 .402.208l-1.547 5.993c4.498 3.047 5.838 5.096 5.147 6.738l.005.004Zm-12.695-.156a.236.236 0 0 1 .054-.089.09.09 0 0 0-.03 0c-.042 0-.03.03-.024.089Zm-1.938.207-1.077-.386.519.788c.22-.08.413-.22.558-.402Zm5.442 42.331c.02-.017.01-.01-.01 0l.002.002a.007.007 0 0 0 .005 0c.001 0 .002 0 .003-.002ZM39.275 22.277a58.515 58.515 0 0 1-2.168-.38 6.949 6.949 0 0 0-.382.246c-1.565 1.078-2.954 2.954-3.927 5.72-.498 1.413-.801 4.558-.99 8.158a207.704 207.704 0 0 0-.22 6.932c.308-.24.645-.487 1.011-.743-1.198-2.971.2-8.45 1.069-11.838l.2-.79c.46-1.832 1.547-3.932 2.97-5.473.736-.794 1.562-1.443 2.44-1.833h-.003Zm-2.823-.512c-.591-.116-1.206-.24-1.837-.369-2.809-.569-5.948-1.204-8.868-1.487-5.372-.52-10.018.152-10.463 4.672-.064.647-.13 1.282-.198 1.95a299.573 299.573 0 0 0-.405 4.087C13.891 39.4 13.597 50.433 19.584 51c3.804-.776 5.818-.478 8.781.193a5.657 5.657 0 0 1 .32-1.677 3.55 3.55 0 0 1 .757-1.262 2.25 2.25 0 0 1-.416-.44c-.704-1.007-.348-2.456 2.093-4.482.037-2.403.107-4.965.228-7.333.187-3.638.5-6.823 1.015-8.285 1.006-2.862 2.453-4.81 4.09-5.942v-.008Zm1.32-.218c.93.172 1.78.31 2.533.395.928-.177 1.89-.055 2.85.49.94.536 1.87 1.478 2.76 2.934.321.53.816 1.489 1.341 2.504.923 1.786 1.942 3.76 2.028 3.749.013-.006-.171-.67-.675-2.404-.876-3.008-2.404-5.275-4.194-6.655-1.197-.922-2.514-1.447-3.834-1.53a5.874 5.874 0 0 0-2.806.517h-.003Zm-8.946 29.75.59.136c.535.125 1.109.258 1.679.384a299.14 299.14 0 0 1-.015-2.748 5.663 5.663 0 0 1-1.247-.545 3.01 3.01 0 0 0-.708 1.147 5.248 5.248 0 0 0-.295 1.63l-.004-.004Zm2.254-2.705v-.608a1.83 1.83 0 0 0-.857.242c.274.147.56.27.857.366Zm0-1.071c0-1.106.012-2.32.03-3.59-1.935 1.677-2.246 2.833-1.703 3.61.108.153.237.29.384.406a2.277 2.277 0 0 1 1.286-.422l.003-.004Zm.464.484v.725c.83.209 1.677.336 2.532.382 1.836.113 3.494-.015 3.51-.247.016-.233-1.545-.548-6.042-.86Zm.545 8.659c1.014.332 2.278.337 3.813-.16 2.199-.714 3.964-1.424 4.742-1.91.218-.136.337-.224.339-.252.002-.028-.081.05-.25.039-.712-.048-2.328.152-5.131.714-1.534.308-2.59.77-3.26 1.333a3.256 3.256 0 0 0-.253.236Zm1.826 5.914c.67.608 1.396 1.152 2.168 1.626 1.312.81 5.555 2.405 10.18 3.666 3.418.934 7.033 1.687 9.82 1.804.16.007.315.012.464.017a4.53 4.53 0 0 1-.305-1.58 4.89 4.89 0 0 1 .633-2.48c.419-.731 1.023-1.314 1.744-1.613 1.075-.441 2.391-.265 3.718.992a.23.23 0 0 1-.136.405c-1.925.142-2.355.612-2.315 1.179.022.291.153.627.283.96.163.418.325.832.308 1.225-.033.766-.698 1.337-3.178 1.376.459.736 1.202 1.379 2.294 1.803a.232.232 0 0 1 .132.299.224.224 0 0 1-.108.12c-.623.33-1.356.986-2.137 1.836.509.099.903.171 1.24.233 1.062.195 1.643.302 1.602.618-.036.291-.869.43-2.713.738l-.333.056c-.44.074-.897.142-1.37.204-1.075 1.35-2.185 2.88-3.218 4.3-.949 1.309-1.834 2.528-2.565 3.433l6.577 4.253c-.434-1.992-.72-3.588-.61-5.08.121-1.646.72-3.15 2.118-4.884.49-.606 1.064-.883 1.583-.9.272-.01.542.058.776.197.236.142.425.35.546.597.244.49.271 1.18-.069 1.995-2.456 5.874-1.89 9.093.66 10.946 2.592 1.883 7.244 2.413 12.865 2.873.988.081 2.296-.291 3.068-.883.267-.207.469-.441.552-.679a.794.794 0 0 0-.097-.706c-.333-.53-1.226-1.094-2.963-1.622-.73-.223-1.341-.421-1.94-.712a7.948 7.948 0 0 1-1.845-1.26c-.61-.54-1.014-.83-1.247-.938.049.127.108.25.178.366.478.813 1.603 2.072 2.698 2.576 2.827 1.3 3.777 2.09 3.561 2.542-.408.87-5.996-.135-9.83-.825-1.009-.182-1.894-.34-2.517-.441-2.76-.43-3.34-.875-3.205-1.734.043-.265.164-.559.308-.904.304-.728.718-1.72.616-3.127a.228.228 0 0 1 .12-.219.234.234 0 0 1 .25.017c.98.639 3.37 1.098 4.729 1.172.206.011.384.015.523.008-.653-.317-2.289-.83-5.457-1.588a.233.233 0 0 1-.147-.109c-.499-.847-.25-1.71.023-2.655.122-.392.22-.79.292-1.194.239-1.53.111-2.307-.053-3.31-.25-1.524-.584-3.555.095-9.339l.164-1.423c.287-2.519.49-4.294.908-5.618-12.383 7.055-22.437 4.261-29.44 1.406l.002-.015Zm1.924 2.018a14.447 14.447 0 0 1-3.05-2.486c-.611-.265-1.197-.516-1.757-.76-1.24-.535-2.346-1.02-3.309-1.362-.99-.353-1.959-.23-2.63.142a1.875 1.875 0 0 0-.649.57 1.1 1.1 0 0 0-.2.688c.023.366.245.761.733 1.14l.178-.005a8.14 8.14 0 0 1 .535.007c1.044.047 2.542.65 4.205 1.527 1.64.866 3.449 2.003 5.133 3.134l.719.482c1.011.389 2.057.778 3.126 1.16 6.086 2.19 12.89 4.215 18.074 5.274.733-.812 1.43-1.478 2.056-1.9-1.083-.51-1.81-1.235-2.245-2.052-.22 0-.451-.01-.696-.02-2.823-.119-6.48-.882-9.926-1.82-4.66-1.275-8.955-2.89-10.297-3.712v-.007ZM57.055 69.7c2.322.008 2.938-.39 2.958-.938.013-.297-.132-.667-.277-1.04-.145-.374-.286-.735-.314-1.093-.056-.758.363-1.389 2.203-1.62-1.03-.801-2.018-.899-2.829-.563-.623.258-1.148.77-1.514 1.413a4.412 4.412 0 0 0-.573 2.244c.005.55.123 1.093.346 1.597Zm.06 4.915c-.257.291-.519.6-.784.922.296-.042.586-.087.869-.135l.332-.054c1.602-.265 2.32-.29 2.326-.34.014-.116-.445.038-1.226-.106-.384-.07-.84-.154-1.29-.243l-.226-.044Zm-1.454 1.014c.315-.392.623-.767.934-1.12-5.172-1.078-11.874-3.08-17.887-5.238a156.53 156.53 0 0 1-1.274-.464c1.754 1.177 2.607 1.797 2.503 2.134-.131.418-1.36.141-3.78-.406-.524-.119-1.105-.25-1.714-.384.765 2.56 3.461 4.121 6.901 4.982 4.38 1.096 9.944 1.06 14.317.496Zm12.05 10.77a.448.448 0 0 0 .116-.03c.071-.034-.019 0-.116.03Zm-2.377-27.412a3.99 3.99 0 0 0-.956 1.05c.39-.241.781-.49 1.176-.75 1.401-.925 2.193-1.595 2.502-1.98-.504.162-1.462.707-2.722 1.678v.002Zm2.876-1.766c-.007-.007-.012 0-.022.009.023 0 .037.008.022-.009Zm-42.57 5.77c1.74 1.126 4.617 2.485 8.05 3.874-1.349-.873-2.741-1.721-4.02-2.398-1.603-.848-3.04-1.429-4.007-1.474l-.022-.002Zm4.549 19.067c-.671.933-1.895 1.4-3.36 1.59-2.19.277-4.925-.089-7.088-.442-1.005-.165-1.691-.242-2.088-.24.373.218 1.085.522 2.107.898.483.176 1.403.517 2.27.837 13.088 4.837 14.742 5.446 26.143.032a903.792 903.792 0 0 0-17.985-2.67v-.005Zm-12.75.835c0-.022 0-.035-.006-.008 0 .012 0 .013.007.008ZM8.667 87.99c1.485-1.168 3.043-2.434 4.824-4.442-.644-.083-1.238-.372-1.885-.972a104.94 104.94 0 0 0-2.794 5.133l-.145.28ZM7.22 89.737a25.865 25.865 0 0 0-2.487 2.296c-1.952 2.075-2.897 3.31-3.182 3.911-.057.121-.205.145-.159.156.06.016.234-.062.49-.218.897-.539 2.44-1.922 3.724-3.61a20.67 20.67 0 0 0 1.614-2.535Zm83.98 5.12c-.07-.018-.042.038-.036.134.062-.08.106-.115.036-.133Z" fill="currentColor" stroke="currentColor" stroke-width=".4"/>
    </symbol>
</svg>