<svg width="22" height="30" viewBox="0 0 22 30" fill="none" xmlns="http://www.w3.org/2000/svg">
<path d="M10.9996 1C5.29615 1 0.65625 5.6399 0.65625 11.3433C0.65625 13.2209 1.49832 15.2403 1.53361 15.3255C1.80558 15.9711 2.34221 16.9738 2.72917 17.5615L9.82105 28.307C10.1113 28.7475 10.5408 29 10.9996 29C11.4583 29 11.8879 28.7475 12.1781 28.3076L19.2706 17.5615C19.6582 16.9738 20.1942 15.9711 20.4662 15.3255C20.5014 15.2409 21.3429 13.2216 21.3429 11.3433C21.3429 5.6399 16.703 1 10.9996 1ZM19.3442 14.8534C19.1014 15.432 18.6019 16.3647 18.2545 16.8916L11.162 27.6377C11.0221 27.8501 10.9777 27.8501 10.8377 27.6377L3.74525 16.8916C3.39784 16.3647 2.89832 15.4314 2.65555 14.8528C2.64521 14.8278 1.87311 12.9691 1.87311 11.3433C1.87311 6.311 5.96725 2.21686 10.9996 2.21686C16.0319 2.21686 20.126 6.311 20.126 11.3433C20.126 12.9715 19.3521 14.8351 19.3442 14.8534Z" fill="#181B20" stroke="#181B20" stroke-width="0.6"/>
<path d="M10.9993 5.86804C7.97967 5.86804 5.52344 8.32489 5.52344 11.3439C5.52344 14.363 7.97967 16.8198 10.9993 16.8198C14.019 16.8198 16.4752 14.363 16.4752 11.3439C16.4752 8.32489 14.019 5.86804 10.9993 5.86804ZM10.9993 15.6029C8.65138 15.6029 6.7403 13.6925 6.7403 11.3439C6.7403 8.99538 8.65138 7.0849 10.9993 7.0849C13.3473 7.0849 15.2583 8.99538 15.2583 11.3439C15.2583 13.6925 13.3473 15.6029 10.9993 15.6029Z" fill="#181B20" stroke="#181B20" stroke-width="0.6"/>
</svg>
