<svg width="10" height="16" viewBox="0 0 10 16" fill="none" xmlns="http://www.w3.org/2000/svg"><path d="M1.2151 8.52159L2.96895 8.52159L2.96895 15.7419C2.96895 15.8845 3.08446 16 3.22702 16L6.20075 16C6.3433 16 6.45881 15.8845 6.45881 15.7419L6.45881 8.55561L8.47502 8.55561C8.60612 8.55561 8.71641 8.45723 8.73138 8.32701L9.0376 5.66885C9.04601 5.59571 9.02284 5.52247 8.97391 5.46761C8.92493 5.41269 8.85484 5.38126 8.78129 5.38126L6.45892 5.38126L6.45892 3.71499C6.45892 3.21269 6.72937 2.95798 7.26284 2.95798C7.33886 2.95798 8.78129 2.95798 8.78129 2.95798C8.92384 2.95798 9.03935 2.84242 9.03935 2.69992L9.03935 0.259974C9.03935 0.117419 8.92384 0.00190967 8.78129 0.00190967L6.68864 0.00190967C6.67388 0.00118709 6.64111 -1.7563e-09 6.5928 -1.74137e-09C6.2297 -1.62918e-09 4.96761 0.0712773 3.97066 0.988438C2.86604 2.0048 3.01959 3.22173 3.05628 3.43272L3.05628 5.38121L1.2151 5.38121C1.07254 5.38121 0.957031 5.49672 0.957031 5.63927L0.957031 8.26348C0.957031 8.40603 1.07254 8.52159 1.2151 8.52159Z" fill="white" /></svg>