<svg width="16" height="16" viewBox="0 0 16 16" fill="none" xmlns="http://www.w3.org/2000/svg"><path d="M15.9836 4.70404C15.9461 3.8539 15.8086 3.26943 15.6117 2.76299C15.4085 2.22541 15.0959 1.74411 14.6864 1.34401C14.2863 0.937682 13.8019 0.621947 13.2705 0.421957C12.7611 0.225019 12.1797 0.0875414 11.3296 0.0500585C10.4731 0.00940123 10.2012 -3.14357e-09 8.02889 -2.47236e-09C5.8566 -1.80115e-09 5.58469 0.00940123 4.73138 0.0468841C3.88124 0.084367 3.29678 0.221967 2.79045 0.418783C2.25275 0.621947 1.77146 0.934508 1.37135 1.34401C0.965025 1.74411 0.649412 2.22858 0.4493 2.75994C0.252363 3.26943 0.114885 3.85072 0.0774022 4.70086C0.036745 5.55735 0.0273437 5.82926 0.0273437 8.00156C0.0273437 10.1739 0.036745 10.4458 0.0742278 11.2991C0.111711 12.1492 0.24931 12.7337 0.446248 13.2401C0.649412 13.7777 0.965025 14.259 1.37135 14.6591C1.77146 15.0654 2.25592 15.3812 2.78728 15.5812C3.29678 15.7781 3.87806 15.9156 4.72833 15.9531C5.58152 15.9907 5.85354 15.9999 8.02584 15.9999C10.1981 15.9999 10.47 15.9907 11.3234 15.9531C12.1735 15.9156 12.758 15.7781 13.2643 15.5812C14.3396 15.1654 15.1897 14.3153 15.6054 13.2401C15.8022 12.7306 15.9398 12.1492 15.9773 11.2991C16.0148 10.4458 16.0242 10.1739 16.0242 8.00156C16.0242 5.82926 16.021 5.55735 15.9836 4.70404ZM14.5427 11.2366C14.5083 12.018 14.377 12.4399 14.2676 12.7212C13.9988 13.4183 13.4456 13.9715 12.7486 14.2403C12.4672 14.3497 12.0422 14.481 11.2639 14.5153C10.42 14.5529 10.1669 14.5622 8.03207 14.5622C5.89725 14.5622 5.64098 14.5529 4.80012 14.5153C4.01872 14.481 3.59676 14.3497 3.31546 14.2403C2.96859 14.1121 2.65285 13.909 2.39658 13.6433C2.1309 13.3838 1.92774 13.0713 1.79954 12.7244C1.69014 12.4431 1.55889 12.018 1.52458 11.2397C1.48698 10.3958 1.4777 10.1426 1.4777 8.00778C1.4777 5.87297 1.48698 5.61669 1.52458 4.77595C1.55889 3.99455 1.69014 3.57259 1.79954 3.29129C1.92774 2.9443 2.1309 2.62868 2.39975 2.37229C2.65908 2.10661 2.97164 1.90345 3.31863 1.77537C3.59993 1.66597 4.02507 1.53472 4.80329 1.50029C5.64721 1.46281 5.90043 1.45341 8.03512 1.45341C10.1731 1.45341 10.4262 1.46281 11.2671 1.50029C12.0485 1.53472 12.4704 1.66597 12.7517 1.77537C13.0986 1.90345 13.4143 2.10661 13.6706 2.37229C13.9363 2.63174 14.1394 2.9443 14.2676 3.29129C14.377 3.57259 14.5083 3.9976 14.5427 4.77595C14.5802 5.61987 14.5896 5.87297 14.5896 8.00778C14.5896 10.1426 14.5802 10.3926 14.5427 11.2366Z" fill="white" /><path d="M8.02912 3.89111C5.76 3.89111 3.91895 5.73205 3.91895 8.00129C3.91895 10.2705 5.76 12.1115 8.02912 12.1115C10.2984 12.1115 12.1393 10.2705 12.1393 8.00129C12.1393 5.73205 10.2984 3.89111 8.02912 3.89111ZM8.02912 10.6675C6.55703 10.6675 5.36295 9.4735 5.36295 8.00129C5.36295 6.52908 6.55703 5.33512 8.02912 5.33512C9.50133 5.33512 10.6953 6.52908 10.6953 8.00129C10.6953 9.4735 9.50133 10.6675 8.02912 10.6675Z" fill="white" /><path d="M13.263 3.72907C13.263 4.25896 12.8333 4.68861 12.3033 4.68861C11.7734 4.68861 11.3437 4.25896 11.3437 3.72907C11.3437 3.19906 11.7734 2.76953 12.3033 2.76953C12.8333 2.76953 13.263 3.19906 13.263 3.72907Z" fill="white" /></svg>