<svg width="121" height="121" viewBox="0 0 121 121" fill="none" xmlns="http://www.w3.org/2000/svg">
<path opacity="0.9" d="M119.904 66.7698C119.906 66.7655 119.907 66.7625 119.908 66.759C119.91 66.7544 119.912 66.7507 119.913 66.7464C119.918 66.731 119.919 66.7142 119.924 66.6984C119.928 66.6858 119.93 66.6722 119.934 66.6593C119.941 66.6316 119.949 66.6043 119.955 66.5756C119.961 66.5476 119.973 66.5199 119.977 66.4916C119.978 66.4896 119.978 66.4885 119.978 66.487C119.979 66.4854 119.98 66.4843 119.98 66.4824C119.98 66.4824 119.98 66.4811 119.98 66.4808C119.98 66.4797 119.98 66.4786 119.98 66.4774C119.98 66.4723 119.98 66.467 119.982 66.462C119.982 66.4581 119.983 66.4544 119.984 66.4509C119.99 66.4079 119.988 66.363 119.99 66.3193C119.993 66.2734 120.001 66.2282 120 66.1829C120 66.1807 120 66.1783 120 66.1759C120 66.1733 119.999 66.1702 119.999 66.1667C119.998 66.1621 119.998 66.1575 119.998 66.1522C119.998 66.1522 119.998 66.1511 119.998 66.1507C119.998 66.1496 119.998 66.1485 119.998 66.1476C119.998 66.1441 119.998 66.1415 119.998 66.1384C119.996 66.0993 119.985 66.0589 119.981 66.0189C119.981 66.0163 119.98 66.0139 119.98 66.0117C119.973 65.9664 119.973 65.9211 119.964 65.877C119.962 65.8711 119.961 65.8643 119.96 65.8582C119.958 65.8509 119.956 65.8444 119.954 65.8371C119.953 65.8345 119.953 65.8325 119.953 65.8299C119.953 65.8279 119.952 65.826 119.951 65.8242C119.95 65.8203 119.951 65.8169 119.949 65.8126C119.939 65.7765 119.923 65.7459 119.913 65.7105C119.897 65.6687 119.888 65.6252 119.87 65.5841C119.869 65.5815 119.869 65.5788 119.868 65.5769C119.865 65.5723 119.863 65.5677 119.861 65.5631C119.86 65.5596 119.858 65.5563 119.857 65.5524C119.855 65.5493 119.852 65.5454 119.851 65.5412C119.849 65.5373 119.847 65.5321 119.845 65.5277C119.844 65.5273 119.844 65.5273 119.844 65.5266C119.843 65.5254 119.843 65.5242 119.843 65.5223C119.824 65.4854 119.803 65.4536 119.783 65.4193C119.763 65.3841 119.747 65.3479 119.725 65.3145C119.721 65.3099 119.718 65.3057 119.714 65.3011C119.712 65.2972 119.71 65.2934 119.707 65.2899C119.707 65.2895 119.707 65.2891 119.707 65.2887C119.706 65.2871 119.704 65.2856 119.703 65.2841C119.7 65.281 119.698 65.278 119.696 65.2749C119.692 65.2688 119.688 65.2631 119.683 65.2565C119.68 65.2539 119.678 65.2504 119.675 65.2469C119.657 65.2222 119.635 65.2027 119.615 65.1793C119.61 65.1717 119.601 65.1648 119.595 65.157C119.578 65.1374 119.564 65.1159 119.545 65.0971C119.54 65.0909 119.537 65.0836 119.53 65.0775C119.524 65.0736 119.521 65.0705 119.517 65.0668C119.513 65.0624 119.509 65.0591 119.505 65.0548C119.494 65.0441 119.483 65.0338 119.472 65.0229C119.469 65.0209 119.468 65.0198 119.466 65.0183C119.008 64.592 106.304 52.82 92.8147 41.1892C64.7611 17 60.7702 17 59.2671 17C57.7608 17 53.7587 17 26.9334 40.8621C13.8711 52.4809 1.61353 64.2525 1.49165 64.3697C1.49124 64.3705 1.49123 64.371 1.49054 64.3712C1.48301 64.3785 1.47726 64.3877 1.46973 64.3942C1.46151 64.403 1.45235 64.4107 1.44372 64.4192C1.42783 64.4353 1.4166 64.4537 1.40222 64.4699C1.38291 64.4921 1.36223 64.5125 1.34375 64.5352C1.34032 64.5402 1.3358 64.5435 1.33169 64.5483C1.33046 64.5502 1.32949 64.5526 1.32785 64.5548C1.32032 64.5651 1.31361 64.5767 1.30566 64.5874C1.30046 64.5951 1.29362 64.602 1.28759 64.6104C1.28184 64.6181 1.27774 64.6266 1.2724 64.6351C1.26596 64.6443 1.25992 64.6523 1.25431 64.6615C1.24102 64.6823 1.2313 64.7039 1.21925 64.7257C1.20747 64.7465 1.19282 64.7638 1.18227 64.7845C1.18227 64.7854 1.18187 64.7858 1.18187 64.7858C1.17845 64.7908 1.17776 64.7961 1.17543 64.8019C1.17174 64.8092 1.16529 64.8162 1.16228 64.8242C1.15776 64.8326 1.15543 64.8426 1.15173 64.8511C1.1468 64.8607 1.14146 64.8695 1.13653 64.8802C1.13283 64.8894 1.12941 64.8986 1.12598 64.9078C1.12215 64.9172 1.11845 64.9259 1.11462 64.9351C1.10448 64.9612 1.09832 64.9885 1.089 65.0154C1.08216 65.0368 1.07093 65.0552 1.0645 65.0768C1.06367 65.0786 1.06408 65.0803 1.06326 65.0821C1.06134 65.0871 1.06107 65.0928 1.05943 65.099C1.05751 65.1055 1.0545 65.1125 1.05231 65.1193C1.0519 65.1219 1.05189 65.1254 1.05121 65.1276C1.04997 65.1322 1.04998 65.1373 1.04861 65.1414C1.04601 65.1522 1.04258 65.1633 1.04026 65.1749C1.03834 65.1821 1.03725 65.1902 1.03574 65.1979C1.03314 65.2086 1.0315 65.2193 1.02931 65.2305C1.02328 65.26 1.02287 65.2899 1.01944 65.3196C1.01725 65.3315 1.01342 65.3441 1.0115 65.3572C1.01 65.3738 1.0063 65.3915 1.00507 65.4079C1.00438 65.416 1.00355 65.4241 1.00328 65.432C1.00287 65.4347 1.00204 65.4363 1.00204 65.4386C1.00163 65.4447 1.00288 65.4497 1.00288 65.4554C1.00246 65.4646 1.00069 65.4727 1.00069 65.4823C1.00069 65.4884 1.00109 65.4942 1.00109 65.5003C1.00068 65.5123 1 65.5249 1 65.5372C1.00082 65.5672 1.00602 65.5967 1.00752 65.6271C1.00971 65.6528 1.00601 65.6789 1.00903 65.7046C1.00985 65.7092 1.01094 65.7143 1.01122 65.7189C1.01163 65.7285 1.01424 65.7361 1.01506 65.7453C1.01657 65.7565 1.01849 65.7676 1.01999 65.7783C1.02109 65.7845 1.02149 65.7902 1.02259 65.7956C1.02259 65.7964 1.02259 65.7971 1.02259 65.798C1.023 65.803 1.02452 65.8068 1.02561 65.8114C1.02739 65.8229 1.02861 65.8336 1.03121 65.8444C1.03655 65.8735 1.04779 65.902 1.05505 65.9307C1.06149 65.9561 1.06299 65.9821 1.07093 66.0064C1.07175 66.0103 1.07354 66.0136 1.07436 66.0171C1.07778 66.0271 1.08149 66.037 1.08559 66.047C1.08902 66.0578 1.09202 66.0685 1.09613 66.0792C1.09832 66.0862 1.10037 66.093 1.10325 66.0998C1.10667 66.1088 1.11079 66.1175 1.11421 66.1276C1.11695 66.1322 1.11722 66.1383 1.11955 66.1437C1.11996 66.1453 1.12146 66.1472 1.12174 66.1483C1.1316 66.1721 1.14597 66.1936 1.15679 66.2166C1.16857 66.2415 1.17569 66.2673 1.18816 66.2907C1.18966 66.2933 1.19117 66.2957 1.1924 66.2972C1.19843 66.3084 1.20528 66.3188 1.21089 66.3291C1.21705 66.3395 1.22268 66.3495 1.22911 66.3599C1.23254 66.3657 1.23597 66.3726 1.23966 66.3783C1.24651 66.3899 1.25363 66.3999 1.26116 66.4109C1.26568 66.4186 1.2702 66.4271 1.2754 66.4347C1.27582 66.4367 1.27663 66.4378 1.27773 66.4398C1.28937 66.4559 1.30374 66.4682 1.31511 66.4839C1.33017 66.5043 1.34087 66.527 1.35744 66.5465C1.36004 66.5499 1.36278 66.5522 1.36538 66.5548C1.3725 66.5637 1.38016 66.5725 1.3877 66.5806C1.39632 66.5909 1.40537 66.6005 1.41441 66.6101C1.4277 66.6246 1.44083 66.6392 1.45412 66.6527C1.46233 66.6611 1.4696 66.6693 1.47714 66.6777C1.49343 66.6939 1.51219 66.7069 1.52889 66.7211C1.54505 66.736 1.55793 66.7537 1.57532 66.7673C1.58025 66.771 1.58546 66.7738 1.59053 66.7776C1.59505 66.7819 1.59875 66.7865 1.6034 66.7907C1.60751 66.7937 1.61285 66.7979 1.61696 66.801C1.61819 66.8022 1.61886 66.8029 1.61969 66.8033C6.61604 70.7714 49.9887 105 58.813 105C67.6071 105 114.012 71.3991 119.331 67.5259C119.336 67.5228 119.338 67.5206 119.343 67.5175C119.344 67.5175 119.344 67.5175 119.344 67.5175C119.346 67.5156 119.347 67.5136 119.35 67.5117C119.357 67.506 119.364 67.501 119.372 67.4955C119.376 67.4921 119.381 67.4898 119.385 67.4868C119.394 67.4787 119.403 67.4688 119.412 67.461C119.431 67.4457 119.448 67.4302 119.466 67.4149C119.486 67.3972 119.504 67.3768 119.523 67.3573C119.529 67.3511 119.537 67.3454 119.543 67.3388C119.556 67.3257 119.571 67.315 119.584 67.3008C119.585 67.2999 119.586 67.2988 119.588 67.2981C119.588 67.2975 119.589 67.2966 119.59 67.2954C119.593 67.2916 119.595 67.2873 119.599 67.2842C119.607 67.2761 119.613 67.2676 119.619 67.26C119.627 67.2508 119.634 67.242 119.642 67.2324C119.649 67.2231 119.654 67.2127 119.662 67.2035C119.681 67.179 119.696 67.1526 119.715 67.1268C119.716 67.1249 119.718 67.1226 119.719 67.1207C119.728 67.1072 119.741 67.0984 119.749 67.085C119.752 67.0804 119.752 67.0765 119.756 67.0719C119.756 67.0711 119.757 67.0707 119.757 67.07C119.763 67.0616 119.768 67.0538 119.773 67.0446C119.777 67.0393 119.781 67.0331 119.786 67.0273C119.786 67.0262 119.786 67.0247 119.786 67.0234C119.816 66.9727 119.837 66.9167 119.861 66.8623C119.869 66.8435 119.881 66.8258 119.89 66.807C119.89 66.805 119.892 66.8036 119.893 66.8024C119.893 66.8019 119.893 66.8013 119.893 66.8004C119.895 66.7967 119.895 66.7923 119.896 66.7873C119.899 66.782 119.901 66.7759 119.904 66.7698ZM58.2787 55.2961C54.5567 55.2961 31.5885 59.0299 16.2364 61.5975C34.1284 54.3158 54.3452 46.607 58.2787 46.607C62.2212 46.607 84.1127 54.5755 103.592 62.1038C86.9235 59.3324 62.0029 55.2961 58.2787 55.2961ZM103.218 65.2775L58.2915 67.2213L16.6598 64.763C34.0225 61.8582 55.0072 58.4917 58.2786 58.4917C61.5561 58.4919 84.3399 62.1373 103.218 65.2775ZM58.1887 70.4167L58.2674 70.4213L103.602 68.4591C86.0365 72.9997 62.6395 78.8073 58.5867 78.8073C54.5475 78.8073 32.6787 72.7055 16.344 67.9456L58.1887 70.4167ZM58.2787 43.4103C53.3532 43.4103 30.954 52.1693 15.8072 58.3308C33.5565 46.287 54.4456 32.9495 58.2787 32.9495C62.1336 32.9495 84.8435 46.6067 104.198 58.9187C87.7252 52.5513 63.2193 43.4103 58.2787 43.4103ZM58.5867 82.0034C63.0698 82.0034 86.3942 76.1965 102.687 71.9938C83.8529 80.8456 62.9836 90.0213 58.8132 90.0213C54.6812 90.0213 35.2117 80.6902 17.6338 71.6456C32.7807 76.0417 54.1391 82.0034 58.5867 82.0034ZM29.0023 43.2675C53.0684 21.8593 58.2523 20.1952 59.2678 20.1952C60.2861 20.1952 65.568 21.8847 90.7784 43.6215C95.1008 47.3491 99.3421 51.0905 103.126 54.4681C86.6471 44.0335 63.1988 29.754 58.2787 29.754C53.5958 29.754 33.8727 42.36 18.9143 52.395C22.0747 49.4934 25.5083 46.3758 29.0023 43.2675ZM17.8199 75.3205C32.9151 83.0626 53.6877 93.216 58.8132 93.216C63.9698 93.216 86.4047 83.1487 102.52 75.5913C84.0055 88.4865 63.3998 101.806 58.8132 101.806C54.3309 101.806 34.8796 88.2046 17.8199 75.3205Z" fill="#FFC500"/>
</svg>
