<svg width="50" height="50" viewBox="0 0 50 50" fill="none" xmlns="http://www.w3.org/2000/svg">
<path d="M39.5833 47.4583H10.4166C9.38617 47.4556 8.36638 47.2496 7.41568 46.8521C6.46498 46.4546 5.60204 45.8735 4.87631 45.1419C4.15058 44.4104 3.57631 43.5428 3.18641 42.589C2.79651 41.6352 2.59863 40.6138 2.60411 39.5833V14.5833C2.61513 12.5186 3.44309 10.5421 4.90702 9.08598C6.37096 7.62985 8.35181 6.81247 10.4166 6.8125H39.5833C41.6481 6.81247 43.6289 7.62985 45.0929 9.08598C46.5568 10.5421 47.3848 12.5186 47.3958 14.5833V39.5833C47.4013 40.6138 47.2034 41.6352 46.8135 42.589C46.4236 43.5428 45.8493 44.4104 45.1236 45.1419C44.3979 45.8735 43.5349 46.4546 42.5842 46.8521C41.6335 47.2496 40.6137 47.4556 39.5833 47.4583ZM10.4166 9.9375C9.1806 9.93745 7.99458 10.4256 7.1167 11.2957C6.23881 12.1658 5.7401 13.3474 5.72911 14.5833V39.5833C5.72084 40.2041 5.83597 40.8204 6.06783 41.3964C6.29969 41.9723 6.64366 42.4965 7.07976 42.9384C7.51586 43.3803 8.03541 43.7312 8.60823 43.9706C9.18106 44.2101 9.79575 44.3334 10.4166 44.3333H39.5833C40.2041 44.3334 40.8188 44.2101 41.3917 43.9706C41.9645 43.7312 42.484 43.3803 42.9201 42.9384C43.3562 42.4965 43.7002 41.9723 43.9321 41.3964C44.1639 40.8204 44.2791 40.2041 44.2708 39.5833V14.5833C44.2598 13.3474 43.7611 12.1658 42.8832 11.2957C42.0053 10.4256 40.8193 9.93745 39.5833 9.9375H10.4166Z" fill="black"/>
<path d="M39.5833 47.4583H10.4166C9.38617 47.4556 8.36638 47.2496 7.41568 46.8521C6.46498 46.4546 5.60204 45.8734 4.87631 45.1419C4.15058 44.4103 3.57631 43.5428 3.18641 42.589C2.79651 41.6351 2.59863 40.6137 2.60411 39.5833V19.75C2.60411 19.3356 2.76873 18.9381 3.06176 18.6451C3.35479 18.3521 3.75221 18.1875 4.16661 18.1875H45.8333C46.2477 18.1875 46.6451 18.3521 46.9381 18.6451C47.2312 18.9381 47.3958 19.3356 47.3958 19.75V39.5833C47.4013 40.6137 47.2034 41.6351 46.8135 42.589C46.4236 43.5428 45.8493 44.4103 45.1236 45.1419C44.3979 45.8734 43.5349 46.4546 42.5842 46.8521C41.6335 47.2496 40.6137 47.4556 39.5833 47.4583ZM5.72911 21.3125V39.5833C5.72084 40.2041 5.83597 40.8204 6.06783 41.3963C6.29969 41.9723 6.64366 42.4964 7.07976 42.9383C7.51586 43.3803 8.03541 43.7311 8.60823 43.9706C9.18106 44.2101 9.79575 44.3334 10.4166 44.3333H39.5833C40.2041 44.3334 40.8188 44.2101 41.3917 43.9706C41.9645 43.7311 42.484 43.3803 42.9201 42.9383C43.3562 42.4964 43.7002 41.9723 43.9321 41.3963C44.1639 40.8204 44.2791 40.2041 44.2708 39.5833V21.25L5.72911 21.3125ZM13.5416 14.0208C13.1359 14.0158 12.7476 13.8552 12.4569 13.5722C12.1661 13.2892 11.9951 12.9054 11.9791 12.5V4.16663C11.9791 3.75223 12.1437 3.3548 12.4368 3.06177C12.7298 2.76875 13.1272 2.60413 13.5416 2.60413C13.956 2.60413 14.3534 2.76875 14.6465 3.06177C14.9395 3.3548 15.1041 3.75223 15.1041 4.16663V12.5C15.0881 12.9054 14.9171 13.2892 14.6264 13.5722C14.3356 13.8552 13.9473 14.0158 13.5416 14.0208ZM24.9999 14.0208C24.5942 14.0158 24.2059 13.8552 23.9152 13.5722C23.6244 13.2892 23.4534 12.9054 23.4374 12.5V4.16663C23.4374 3.75223 23.6021 3.3548 23.8951 3.06177C24.1881 2.76875 24.5855 2.60413 24.9999 2.60413C25.4143 2.60413 25.8118 2.76875 26.1048 3.06177C26.3978 3.3548 26.5624 3.75223 26.5624 4.16663V12.5C26.5465 12.9054 26.3754 13.2892 26.0847 13.5722C25.7939 13.8552 25.4057 14.0158 24.9999 14.0208ZM36.4583 14.0208C36.0526 14.0158 35.6643 13.8552 35.3735 13.5722C35.0828 13.2892 34.9118 12.9054 34.8958 12.5V4.16663C34.8958 3.75223 35.0604 3.3548 35.3534 3.06177C35.6465 2.76875 36.0439 2.60413 36.4583 2.60413C36.8727 2.60413 37.2701 2.76875 37.5631 3.06177C37.8562 3.3548 38.0208 3.75223 38.0208 4.16663V12.5C38.0048 12.9054 37.8338 13.2892 37.543 13.5722C37.2523 13.8552 36.864 14.0158 36.4583 14.0208Z" fill="black"/>
<path d="M14.5832 30.6875C16.0214 30.6875 17.1873 29.5215 17.1873 28.0833C17.1873 26.6451 16.0214 25.4791 14.5832 25.4791C13.1449 25.4791 11.979 26.6451 11.979 28.0833C11.979 29.5215 13.1449 30.6875 14.5832 30.6875Z" fill="black"/>
<path d="M25.0002 30.6875C26.4384 30.6875 27.6043 29.5215 27.6043 28.0833C27.6043 26.6451 26.4384 25.4791 25.0002 25.4791C23.5619 25.4791 22.396 26.6451 22.396 28.0833C22.396 29.5215 23.5619 30.6875 25.0002 30.6875Z" fill="black"/>
<path d="M35.4167 30.6875C36.8549 30.6875 38.0208 29.5215 38.0208 28.0833C38.0208 26.6451 36.8549 25.4791 35.4167 25.4791C33.9784 25.4791 32.8125 26.6451 32.8125 28.0833C32.8125 29.5215 33.9784 30.6875 35.4167 30.6875Z" fill="black"/>
<path d="M14.5832 39.0208C16.0214 39.0208 17.1873 37.8549 17.1873 36.4167C17.1873 34.9784 16.0214 33.8125 14.5832 33.8125C13.1449 33.8125 11.979 34.9784 11.979 36.4167C11.979 37.8549 13.1449 39.0208 14.5832 39.0208Z" fill="black"/>
<path d="M25.0002 39.0208C26.4384 39.0208 27.6043 37.8549 27.6043 36.4167C27.6043 34.9784 26.4384 33.8125 25.0002 33.8125C23.5619 33.8125 22.396 34.9784 22.396 36.4167C22.396 37.8549 23.5619 39.0208 25.0002 39.0208Z" fill="black"/>
<path d="M35.4167 39.0208C36.8549 39.0208 38.0208 37.8549 38.0208 36.4167C38.0208 34.9784 36.8549 33.8125 35.4167 33.8125C33.9784 33.8125 32.8125 34.9784 32.8125 36.4167C32.8125 37.8549 33.9784 39.0208 35.4167 39.0208Z" fill="black"/>
</svg>
