<svg width="121" height="121" viewBox="0 0 121 121" fill="none" xmlns="http://www.w3.org/2000/svg">
<path opacity="0.9" d="M111 47.1761L66.2859 2V22.0988L52.5282 8.20903V28.9079L38.518 14.7528V35.0299L24.759 21.1287V41.4066L11 27.5044V119H55.7133V112.623H69.4733V106.248H83.2315V99.8715H97.441V93.4938H111V47.1761H111ZM14.1866 115.81V35.2565L25.2244 46.4082C25.2256 46.4091 25.2264 46.4099 25.2274 46.4117L52.5282 73.9935V111.013C52.5282 111.018 52.5264 111.023 52.5264 111.029C52.5264 111.035 52.5282 111.04 52.5282 111.045V115.81H14.1866ZM66.2861 109.434H55.7131V72.6815L27.9451 44.626V28.8805L66.2859 67.6166L66.2861 109.434ZM80.0451 103.058H69.4731V66.3056L41.705 38.2493V22.5055L80.0449 61.2398L80.0451 103.058ZM94.2546 96.6826H83.2313V59.9289L55.7131 32.1265V15.9565L94.2546 54.8648V96.6826ZM107.812 90.3058H97.4407V53.5522L69.4721 25.3148C69.4721 25.3123 69.4731 25.3086 69.4731 25.3051V9.75117L107.812 48.4873V90.3058Z" fill="#FFC500"/>
</svg>
